<svg width="75" height="77" viewBox="0 0 75 77" fill="none" xmlns="http://www.w3.org/2000/svg">
<g clip-path="url(#clip0_1561_2659)">
<path d="M69.7691 15.9022C69.9309 16.5496 70.2142 17.1912 70.2315 17.8386C70.2893 20.197 70.1679 22.5612 70.2777 24.9138C70.4627 28.7346 67.1853 31.8906 63.4107 31.8328C55.4685 31.723 47.5205 31.7982 39.5725 31.7982H38.5436C38.5436 34.0641 38.5436 36.2548 38.5436 38.4456C38.4916 38.1797 38.4049 37.9195 38.3991 37.6537C38.3876 35.7404 38.3934 33.8328 38.3934 31.8733H35.8731V32.6826C35.8731 34.3646 35.8789 36.0525 35.8673 37.7346C35.8673 37.9716 35.7749 38.2086 35.7286 38.4513C35.7286 36.2779 35.7286 34.0987 35.7286 31.8039C35.3702 31.8039 35.0697 31.8039 34.7749 31.8039C26.746 31.8039 18.7228 31.7635 10.6939 31.8213C7.7633 31.8444 4.77486 29.8097 4.10434 26.4398C4.04075 26.1103 4.02919 25.7693 4.02919 25.434C4.02919 19.0756 4.01185 12.723 4.02919 6.36464C4.04075 2.91955 6.92515 0.0178163 10.3645 0.012036C24.376 -0.00530506 38.3818 0.000475283 52.3934 0.0235967C53.0581 0.0235967 53.7228 0.324175 54.3934 0.486024C54.3934 4.23747 54.4569 7.99469 54.3645 11.7461C54.3124 13.8328 56.2199 15.96 58.5321 15.9195C62.2778 15.8617 66.0234 15.9022 69.7691 15.9022ZM14.5668 14.5207C15.3413 14.5207 16.1217 14.4745 16.8962 14.5323C18.0928 14.619 18.5725 14.0005 18.6072 12.9311C18.665 11.3242 18.6592 9.71724 18.6072 8.1103C18.5783 7.12764 18.0176 6.59585 17.0986 6.57851C15.4165 6.55539 13.7344 6.54961 12.0523 6.57851C11.1621 6.59585 10.6188 7.09874 10.5957 7.97157C10.5552 9.68256 10.5494 11.3935 10.5957 13.1045C10.6246 14.093 11.1448 14.5091 12.1621 14.5149C12.9656 14.5149 13.7691 14.5149 14.5668 14.5149V14.5207ZM32.4685 14.538C35.3124 14.538 38.1564 14.5438 41.0061 14.538C41.8673 14.538 42.3876 14.0641 42.428 13.3242C42.4685 12.5669 41.9367 11.9947 41.0928 11.9022C40.8616 11.8791 40.6303 11.8906 40.3934 11.8906C35.5032 11.8906 30.613 11.8906 25.7286 11.8906C25.2604 11.8906 24.798 11.8906 24.3298 11.8906C24.1506 11.8906 23.9656 11.8849 23.7864 11.9138C23.035 12.0294 22.5205 12.6074 22.5436 13.2722C22.5725 14.0294 23.0986 14.5323 23.9309 14.538C26.7749 14.5496 29.6188 14.538 32.4685 14.5438V14.538ZM43.0928 9.23169C44.983 9.23169 46.8673 9.23169 48.7575 9.23169C49.8384 9.23169 50.3818 8.77504 50.3702 7.89643C50.3587 7.07562 49.7806 6.58429 48.7864 6.58429C45.0119 6.57851 41.2373 6.57851 37.4569 6.58429C36.4223 6.58429 35.8095 7.1103 35.8327 7.94845C35.85 8.76348 36.428 9.23169 37.4338 9.23169C39.324 9.23169 41.2084 9.23169 43.0986 9.23169H43.0928ZM27.8616 9.23169C29.1275 9.23169 30.3934 9.24325 31.6593 9.23169C32.6014 9.22591 33.1275 8.73458 33.1217 7.90799C33.1217 7.12764 32.5899 6.59585 31.7113 6.59007C29.1564 6.57273 26.5957 6.57273 24.0408 6.59007C23.1448 6.59585 22.5321 7.18545 22.5436 7.93689C22.5552 8.71724 23.139 9.22591 24.0639 9.23747C25.3298 9.24903 26.5957 9.23747 27.8616 9.23747V9.23169Z" fill="#9EC8D2"/>
<path d="M73.9657 55.92C74.0697 56.4749 74.2605 57.0298 74.2662 57.5847C74.2894 63.0818 74.2836 68.5789 74.2778 74.0818C74.2778 75.92 73.2258 76.9893 71.3934 76.9893C66.2431 77.0009 61.0928 77.0009 55.9368 76.9893C54.1044 76.9893 53.0408 75.9373 53.035 74.0876C53.0235 66.2784 53.0235 58.4749 53.035 50.6656C53.035 48.8391 54.1333 47.8044 55.9657 47.7986C58.0871 47.787 60.2084 47.787 62.3356 47.7813C63.2084 47.7813 64.0755 47.7812 64.9483 47.787C65.4108 47.9142 65.8732 48.0356 66.3356 48.1628C66.3356 50.1338 66.3356 52.1049 66.3472 54.076C66.3472 55.3477 66.7518 55.7581 68.0119 55.7639C69.694 55.7639 71.3761 55.7581 73.0582 55.7697C73.3587 55.7697 73.6593 55.868 73.9599 55.92H73.9657ZM63.694 67.7292C61.9888 67.7292 60.2778 67.7234 58.5726 67.7292C57.6189 67.7292 57.0582 68.2148 57.0408 69.0067C57.0235 69.8101 57.6362 70.3766 58.5842 70.3766C61.9715 70.3882 65.3645 70.3882 68.7518 70.3766C69.7229 70.3766 70.2894 69.8275 70.2662 68.9951C70.2431 68.1859 69.7113 67.735 68.7345 67.7292C67.0524 67.7234 65.3703 67.7292 63.6882 67.7292H63.694ZM63.6015 63.7177C65.3067 63.7177 67.0177 63.7177 68.7229 63.7177C69.7229 63.7177 70.2778 63.2321 70.272 62.3882C70.272 61.5616 69.6998 61.0703 68.6998 61.0703C65.3356 61.0645 61.9715 61.0645 58.6131 61.0703C57.6593 61.0703 57.035 61.6194 57.0466 62.4113C57.0582 63.2206 57.6478 63.7119 58.6362 63.7177C60.2894 63.7234 61.9483 63.7177 63.6015 63.7177ZM59.6535 57.0471C60.1449 57.0471 60.6362 57.076 61.1275 57.0414C61.8212 56.9893 62.2952 56.498 62.3183 55.8448C62.3414 55.1281 62.0004 54.5616 61.3009 54.5038C60.2258 54.4113 59.1333 54.4171 58.0582 54.5038C57.3934 54.5616 56.9946 55.2148 57.0408 55.8564C57.0928 56.5096 57.561 56.9951 58.2547 57.0414C58.7171 57.076 59.1853 57.0471 59.6535 57.0414V57.0471Z" fill="#EFC319"/>
<path d="M20.8266 55.7581C20.9653 56.4344 21.2197 57.1107 21.2254 57.787C21.2601 63.1801 21.2486 68.5732 21.2428 73.9662C21.2428 75.9604 20.2081 76.9893 18.2312 76.9951C13.1561 76.9951 8.08671 76.9951 3.01156 76.9951C1.01734 76.9951 0.00578035 75.972 0 73.9778C0 66.2495 0 58.5269 0 50.7986C0 48.8217 1.0289 47.8044 3.02312 47.7986C5.12139 47.7928 7.21387 47.787 9.31214 47.7812C10.185 47.7812 11.052 47.787 11.9249 47.7928C12.3526 47.9084 12.7746 48.024 13.2023 48.1454C13.2023 50.0645 13.2023 51.9836 13.2139 53.9026C13.2254 55.3073 13.6994 55.7697 15.0809 55.7697C16.9942 55.7697 18.9133 55.7697 20.8266 55.7697V55.7581ZM10.6416 67.7292C8.93642 67.7292 7.22543 67.7234 5.52023 67.7292C4.54913 67.7292 4.02312 68.1974 4.01156 69.0125C4 69.8506 4.56069 70.3708 5.54335 70.3708C8.93064 70.3824 12.3237 70.3824 15.711 70.3708C16.6532 70.3708 17.2659 69.7812 17.237 68.9778C17.2081 68.1917 16.6474 67.7292 15.6879 67.7234C14.0058 67.7177 12.3237 67.7234 10.6416 67.7234V67.7292ZM10.5549 63.7177C12.237 63.7177 13.9191 63.7177 15.6012 63.7177C16.6358 63.7177 17.2486 63.2032 17.237 62.3766C17.2254 61.5847 16.6069 61.0703 15.6358 61.0703C12.3006 61.0703 8.95954 61.0703 5.62428 61.0703C4.55491 61.0703 4 61.55 4.01156 62.4229C4.02312 63.261 4.56647 63.7177 5.5896 63.7177C7.24277 63.7234 8.90173 63.7177 10.5549 63.7177ZM6.60116 57.0471C7.09249 57.0471 7.58382 57.076 8.07514 57.0414C8.75723 56.9893 9.26012 56.4922 9.27746 55.8448C9.2948 55.1859 8.99422 54.5905 8.3237 54.5269C7.20231 54.4286 6.0578 54.4113 4.93642 54.5269C4.24277 54.5963 3.93064 55.2148 4.02312 55.9315C4.10983 56.6136 4.52601 56.9951 5.20809 57.0414C5.67052 57.0703 6.13873 57.0471 6.60116 57.0414V57.0471Z" fill="#EFC319"/>
<path d="M38.4337 47.7852C38.8788 47.9065 39.3297 48.0279 39.7748 48.1493C39.7748 50.1204 39.7748 52.0915 39.7863 54.0568C39.7863 55.2476 40.295 55.7563 41.4858 55.762C43.4511 55.762 45.4164 55.7678 47.3817 55.7736C47.4973 56.3227 47.717 56.8776 47.717 57.4268C47.7401 63.0279 47.7401 68.6349 47.7285 74.236C47.7285 75.9123 46.6881 76.9817 45.0233 76.9875C39.769 77.0048 34.5089 77.0048 29.2545 76.9875C27.5898 76.9875 26.5551 75.9123 26.5551 74.236C26.5493 66.3516 26.5493 58.4615 26.5551 50.5771C26.5551 48.8603 27.6071 47.8141 29.3181 47.8025C31.4915 47.7852 33.6649 47.7909 35.8441 47.7852C36.7112 47.7852 37.5782 47.7852 38.4395 47.7909L38.4337 47.7852ZM37.1447 63.7158C38.8268 63.7158 40.5089 63.7158 42.191 63.7158C43.1563 63.7158 43.7806 63.1782 43.7806 62.3921C43.7806 61.606 43.1447 61.0684 42.1852 61.0684C38.821 61.0684 35.4569 61.0626 32.0927 61.0684C31.1332 61.0684 30.5031 61.6117 30.5031 62.3979C30.5031 63.1898 31.1274 63.71 32.0985 63.7158C33.7806 63.7216 35.4626 63.7158 37.1447 63.7158ZM37.1447 67.7274C35.4626 67.7274 33.7806 67.7274 32.0985 67.7274C31.1274 67.7274 30.5089 68.2476 30.5031 69.0395C30.5031 69.8256 31.1332 70.3748 32.0927 70.3805C35.4569 70.3921 38.821 70.3921 42.1852 70.3805C43.1505 70.3805 43.7806 69.8314 43.7806 69.0453C43.7806 68.2591 43.1563 67.7331 42.191 67.7331C40.5089 67.7274 38.8268 67.7331 37.1447 67.7331V67.7274ZM33.11 57.0511C33.5493 57.0511 33.9886 57.0511 34.428 57.0511C34.48 57.0511 34.532 57.0511 34.584 57.0395C35.2892 56.9701 35.7459 56.5193 35.7806 55.8487C35.821 55.1262 35.4915 54.5597 34.7921 54.4961C33.7227 54.3979 32.6303 54.4094 31.5551 54.4961C30.9019 54.5482 30.4626 55.2245 30.5089 55.8314C30.5609 56.4961 31.0753 56.999 31.7979 57.0395C32.2372 57.0684 32.6765 57.0395 33.1158 57.0395L33.11 57.0511Z" fill="#EFC319"/>
<path d="M38.4332 47.7864C37.5662 47.7864 36.7049 47.7864 35.8378 47.7806C35.8378 45.6014 35.8378 43.4223 35.8378 41.1332H34.9477C27.9014 41.1332 20.8552 41.1332 13.8147 41.1332C12.3581 41.1332 11.965 41.5263 11.9592 42.9656C11.9592 44.5725 11.9419 46.1853 11.9361 47.7922C11.0633 47.7922 10.1962 47.7864 9.32339 47.7806C9.32339 45.9887 9.29449 44.2026 9.32339 42.4107C9.35229 40.1564 11.0748 38.4858 13.3754 38.4858C20.5199 38.4743 27.6644 38.4858 34.8147 38.4858C35.1269 38.4858 35.4332 38.4685 35.7454 38.4569C35.7974 38.2199 35.8841 37.983 35.8841 37.7402C35.8956 36.0581 35.8899 34.3702 35.8899 32.6882V31.8789H38.4101C38.4101 33.8384 38.4101 35.7517 38.4159 37.6593C38.4159 37.9251 38.5084 38.1853 38.5604 38.4512C40.2714 38.4627 41.9766 38.4801 43.6876 38.4801C49.3581 38.4801 55.0286 38.4801 60.6991 38.4801C63.3349 38.4801 64.9766 40.1101 64.9881 42.7286C64.9881 44.4165 64.9766 46.0986 64.9708 47.7864C64.098 47.7864 63.2309 47.7864 62.3581 47.7806C62.3581 46.0697 62.3581 44.3529 62.3407 42.6419C62.3349 41.6535 61.8378 41.139 60.8667 41.139C53.5373 41.1332 46.2078 41.139 38.8783 41.139C38.78 41.139 38.6818 41.1621 38.4506 41.191V47.7864H38.4332Z" fill="#3F5C6C"/>
<path d="M69.7689 15.9025C66.0233 15.9025 62.2776 15.8621 58.532 15.9199C56.214 15.9545 54.3123 13.8331 54.3643 11.7464C54.4568 7.995 54.3932 4.24355 54.3932 0.486328C54.8846 0.798467 55.4568 1.04124 55.8614 1.44009C60.2025 5.75222 64.5204 10.0759 68.821 14.4227C69.2256 14.8274 69.4568 15.4054 69.7689 15.8967V15.9025Z" fill="#83B4CA"/>
<path d="M20.8264 55.7571C18.9131 55.7571 16.994 55.7571 15.0807 55.7571C13.6992 55.7571 13.2252 55.2947 13.2137 53.89C13.1963 51.971 13.2021 50.0519 13.2021 48.1328C13.5894 48.3756 14.0345 48.549 14.3466 48.8611C16.2946 50.7744 18.2252 52.7108 20.1385 54.6646C20.4333 54.9652 20.6009 55.3871 20.8264 55.7513V55.7571Z" fill="#F2D45B"/>
<path d="M73.9651 55.9193C73.6645 55.8673 73.3639 55.769 73.0634 55.769C71.3813 55.7517 69.6992 55.769 68.0171 55.7633C66.757 55.7633 66.3524 55.3471 66.3524 54.0754C66.3524 52.1043 66.3466 50.1332 66.3408 48.1621C66.7801 48.4627 67.2772 48.7112 67.653 49.0754C69.4449 50.8269 71.2194 52.5956 72.9593 54.3933C73.3755 54.8211 73.6298 55.4049 73.9593 55.9136L73.9651 55.9193Z" fill="#F2D45B"/>
<path d="M47.3814 55.7688C45.416 55.7688 43.4507 55.7688 41.4854 55.7572C40.2946 55.7572 39.7918 55.2486 39.786 54.052C39.786 52.0809 39.7802 50.1098 39.7744 48.1445C40.179 48.4104 40.6415 48.6185 40.9825 48.948C42.8669 50.7977 44.734 52.6648 46.5779 54.5549C46.9074 54.896 47.1155 55.3584 47.3814 55.763V55.7688Z" fill="#F2D45B"/>
<path d="M14.5663 14.5206C13.7629 14.5206 12.9594 14.5206 12.1617 14.5206C11.1501 14.5148 10.6241 14.0986 10.5952 13.1102C10.549 11.3992 10.549 9.68822 10.5952 7.97724C10.6184 7.10441 11.1617 6.60152 12.0519 6.58418C13.734 6.55527 15.416 6.55527 17.0981 6.58418C18.0172 6.59574 18.5779 7.13331 18.6068 8.11597C18.6588 9.7229 18.6646 11.3298 18.6068 12.9368C18.5721 14.0061 18.0923 14.6246 16.8958 14.5379C16.1212 14.4801 15.3409 14.5264 14.5663 14.5264V14.5206Z" fill="#3B96D2"/>
<path d="M32.468 14.5311C29.6241 14.5311 26.7801 14.5368 23.9304 14.5253C23.0981 14.5253 22.5778 14.0166 22.5431 13.2594C22.5142 12.5947 23.0345 12.0166 23.7859 11.901C23.9651 11.8721 24.1443 11.8837 24.3293 11.8779C24.7975 11.8779 25.2599 11.8779 25.7281 11.8779C30.6183 11.8779 35.5085 11.8779 40.3928 11.8779C40.6241 11.8779 40.8611 11.8663 41.0923 11.8895C41.9362 11.9819 42.468 12.5542 42.4275 13.3114C42.3871 14.0571 41.8726 14.5253 41.0056 14.5253C38.1616 14.5368 35.3177 14.5253 32.468 14.5253V14.5311Z" fill="#3F5C6C"/>
<path d="M43.0924 9.22595C41.2023 9.22595 39.3179 9.22595 37.4277 9.22595C36.4219 9.22595 35.8439 8.75196 35.8265 7.94272C35.8092 7.10457 36.4161 6.57855 37.4508 6.57855C41.2254 6.57277 44.9999 6.57277 48.7803 6.57855C49.7803 6.57855 50.3583 7.07566 50.3641 7.89069C50.3757 8.76931 49.8323 9.22595 48.7514 9.22595C46.8612 9.22595 44.9768 9.22595 43.0866 9.22595H43.0924Z" fill="#3F5C6C"/>
<path d="M27.861 9.22486C26.5952 9.22486 25.3293 9.23064 24.0634 9.22486C23.1443 9.21908 22.5605 8.71041 22.5431 7.92428C22.5316 7.17861 23.1443 6.58324 24.0402 6.57746C26.5952 6.56012 29.1558 6.56012 31.7108 6.57746C32.5894 6.58324 33.1154 7.11503 33.1212 7.89538C33.1212 8.72197 32.6009 9.20752 31.6587 9.21908C30.3928 9.23064 29.1269 9.21908 27.861 9.21908V9.22486Z" fill="#3F5C6C"/>
<path d="M63.6878 67.7278C65.3699 67.7278 67.052 67.722 68.734 67.7278C69.7109 67.7278 70.2369 68.1844 70.2658 68.9937C70.289 69.8318 69.7225 70.3752 68.7514 70.3752C65.3641 70.3868 61.971 70.3868 58.5837 70.3752C57.6358 70.3752 57.0231 69.8029 57.0404 69.0053C57.0577 68.2133 57.6127 67.7336 58.5722 67.7278C60.2774 67.7162 61.9884 67.7278 63.6936 67.7278H63.6878Z" fill="#3F5C6B"/>
<path d="M63.5951 63.7162C61.9419 63.7162 60.283 63.7162 58.6298 63.7162C57.6414 63.7162 57.046 63.2191 57.0402 62.4098C57.0286 61.6179 57.6529 61.0688 58.6067 61.0688C61.9708 61.063 65.335 61.063 68.6934 61.0688C69.6934 61.0688 70.2598 61.5601 70.2656 62.3867C70.2656 63.2306 69.7223 63.7104 68.7165 63.7162C67.0113 63.722 65.3003 63.7162 63.5951 63.7162Z" fill="#3F5C6C"/>
<path d="M59.6476 57.0465C59.1794 57.0465 58.717 57.0754 58.2488 57.0465C57.5552 56.9944 57.0869 56.5089 57.0349 55.8615C56.9887 55.2199 57.3817 54.5609 58.0523 54.5089C59.1274 54.4222 60.2199 54.4106 61.295 54.5089C61.9945 54.5725 62.3413 55.1332 62.3124 55.8499C62.2893 56.5089 61.8153 56.9944 61.1216 57.0465C60.6303 57.0811 60.139 57.0522 59.6476 57.0522V57.0465Z" fill="#3F5C6B"/>
<path d="M10.6412 67.7291C12.3233 67.7291 14.0053 67.7234 15.6874 67.7291C16.6527 67.7291 17.2077 68.1973 17.2366 68.9835C17.2655 69.7869 16.6527 70.3708 15.7106 70.3765C12.3233 70.3881 8.9302 70.3881 5.54292 70.3765C4.56026 70.3765 3.99379 69.8505 4.01113 69.0182C4.02269 68.1973 4.5487 67.7349 5.5198 67.7349C7.225 67.7234 8.93598 67.7349 10.6412 67.7349V67.7291Z" fill="#3F5C6B"/>
<path d="M10.5611 63.7177C8.90793 63.7177 7.24897 63.7177 5.59579 63.7177C4.57267 63.7177 4.02931 63.2611 4.01775 62.4229C4.00619 61.5501 4.56689 61.0703 5.63047 61.0703C8.96573 61.0703 12.3068 61.0703 15.642 61.0703C16.6131 61.0703 17.2316 61.5905 17.2432 62.3767C17.2547 63.2033 16.642 63.7119 15.6073 63.7177C13.9253 63.7177 12.2432 63.7177 10.5611 63.7177Z" fill="#3F5C6C"/>
<path d="M6.60704 57.046C6.14461 57.046 5.6764 57.0691 5.21397 57.046C4.53189 56.9997 4.11571 56.6182 4.029 55.9361C3.9423 55.2251 4.24865 54.6067 4.9423 54.5315C6.06368 54.4159 7.20819 54.4332 8.32958 54.5315C9.0001 54.5893 9.30068 55.1847 9.28334 55.8494C9.266 56.5026 8.7631 56.9997 8.08102 57.046C7.59547 57.0806 7.09837 57.0517 6.60704 57.0517V57.046Z" fill="#3F5C6B"/>
<path d="M37.1387 63.7162C35.4566 63.7162 33.7745 63.7162 32.0924 63.7162C31.1271 63.7162 30.5029 63.1844 30.4971 62.3983C30.4971 61.6121 31.1271 61.0688 32.0867 61.0688C35.4508 61.063 38.815 61.063 42.1792 61.0688C43.1387 61.0688 43.7745 61.6064 43.7745 62.3925C43.7745 63.1786 43.1503 63.7104 42.1849 63.7162C40.5029 63.722 38.8208 63.7162 37.1387 63.7162Z" fill="#3F5C6C"/>
<path d="M37.1387 67.729C38.8208 67.729 40.5029 67.729 42.1849 67.729C43.1503 67.729 43.7745 68.2551 43.7745 69.0412C43.7745 69.8273 43.1445 70.3707 42.1792 70.3764C38.815 70.388 35.4508 70.388 32.0867 70.3764C31.1271 70.3764 30.4971 69.8215 30.4971 69.0354C30.4971 68.2493 31.1213 67.7291 32.0924 67.7233C33.7745 67.7175 35.4566 67.7233 37.1387 67.7233V67.729Z" fill="#3F5C6B"/>
<path d="M33.1044 57.0518C32.6651 57.0518 32.2258 57.0749 31.7865 57.0518C31.0639 57.0056 30.5495 56.5027 30.4975 55.8437C30.4512 55.2368 30.8905 54.5605 31.5437 54.5085C32.6189 54.4275 33.7113 54.416 34.7807 54.5085C35.4801 54.572 35.8096 55.1443 35.7692 55.8611C35.7345 56.5316 35.2778 56.9767 34.5726 57.0518C34.5206 57.0518 34.4686 57.0634 34.4166 57.0634C33.9772 57.0634 33.5379 57.0634 33.0986 57.0634L33.1044 57.0518Z" fill="#3F5C6B"/>
</g>
<defs>
<clipPath id="clip0_1561_2659">
<rect width="74.2832" height="77" fill="white"/>
</clipPath>
</defs>
</svg>
