<svg width="78" height="77" viewBox="0 0 78 77" fill="none" xmlns="http://www.w3.org/2000/svg">
<path d="M77.9959 4.4829V60.2305C76.9829 61.4993 76.5706 61.5153 74.9882 60.979C72.7737 60.2305 70.5081 59.6421 68.2661 58.9817C68.1836 58.1852 67.63 58.0931 67.0017 58.0931C63.1302 58.0931 59.2626 58.0931 55.3911 58.0931C53.954 58.0931 53.5339 58.4013 53.0234 59.7662C52.8703 59.7742 52.7133 59.7542 52.5719 59.7942C49.5446 60.6147 46.7136 61.9196 43.9925 63.4766C42.8067 64.153 41.6798 64.9335 40.5294 65.666C40.5294 46.5538 40.5294 27.4416 40.5294 8.32936C40.5294 8.01716 40.5215 7.70896 40.5137 7.39676C40.6079 7.31271 40.6904 7.20864 40.7964 7.1446C42.5397 6.0479 44.287 4.9512 46.0304 3.8585C48.1075 3.05799 50.1571 2.17743 52.2656 1.47298C55.1241 0.516368 58.1043 0.0880945 61.112 0.0080434C62.8946 -0.0399873 64.689 0.136125 66.4717 0.296227C69.4636 0.560396 72.33 1.39693 75.0903 2.56568C76.1544 3.01797 77.4069 3.25412 77.9998 4.4829H77.9959ZM72.6677 14.3452C72.6794 13.6167 72.3614 13.2725 71.4387 13.0244C67.5397 11.9877 63.5975 11.5914 59.5611 11.8996C55.0377 12.2479 50.7461 13.4246 46.6194 15.2898C45.8223 15.65 45.4964 16.2904 45.7555 16.9469C46.0304 17.6513 46.7018 17.8634 47.5539 17.5112C48.563 17.095 49.5603 16.6467 50.5812 16.2664C53.424 15.2017 56.3688 14.5293 59.3765 14.3172C61.4144 14.1731 63.4875 14.2211 65.5215 14.4212C67.4494 14.6094 69.3458 15.1097 71.258 15.4699C72.0002 15.61 72.652 15.0817 72.6637 14.3452H72.6677ZM62.1722 20.4851C60.0401 20.7373 57.9001 20.9254 55.7798 21.2576C52.5601 21.7619 49.4896 22.8146 46.533 24.2035C45.6417 24.6238 45.4021 25.4803 45.9833 26.1407C46.4584 26.6811 47.0002 26.617 47.5774 26.3569C51.2094 24.6998 54.9828 23.6111 58.9564 23.2429C62.9771 22.8706 66.9428 23.1308 70.8418 24.2235C71.7489 24.4757 72.4792 24.1835 72.6441 23.479C72.8247 22.7025 72.4203 22.1342 71.4858 21.886C68.4388 21.0735 65.3408 20.6492 62.1722 20.4811V20.4851ZM72.6677 31.9885C72.6716 31.248 72.2004 30.9678 71.5879 30.7957C67.3237 29.5949 62.9849 29.2027 58.5873 29.679C54.4056 30.1313 50.3927 31.248 46.5722 33.0491C45.8223 33.4014 45.5082 34.0018 45.7555 34.6502C46.0147 35.3346 46.7018 35.6028 47.4793 35.2546C51.1859 33.5895 55.0181 32.3287 59.0781 32.1246C61.595 31.9965 64.1315 32.0805 66.6484 32.2646C68.1483 32.3727 69.6207 32.853 71.101 33.1652C71.9844 33.3533 72.6873 32.829 72.6716 31.9925L72.6677 31.9885ZM59.0074 38.3846C57.001 38.7848 54.9553 39.049 52.992 39.6173C50.7814 40.2577 48.6376 41.1343 46.4937 41.9949C46.1403 42.1349 45.7948 42.6953 45.7477 43.0996C45.7084 43.4238 46.0657 44.0282 46.3563 44.1042C46.8196 44.2283 47.4164 44.1402 47.8719 43.9401C50.4398 42.8114 53.0706 41.8988 55.8348 41.4225C56.9067 41.2384 57.9865 41.1063 59.0624 40.9622C59.9144 40.8461 60.3621 40.3778 60.3306 39.6133C60.3032 38.9449 59.777 38.4966 59.0113 38.3886L59.0074 38.3846Z" fill="#DCEAFC"/>
<path d="M77.9956 65.6667C77.0061 66.9035 76.5859 67.0436 75.1292 66.4232C72.098 65.1263 68.9254 64.4139 65.6821 63.9816C65.258 63.9256 64.8222 63.9576 64.3903 63.9496C64.0997 63.4973 64.3471 63.1891 64.6494 62.8849C65.686 61.8362 66.7226 60.7836 67.7474 59.7189C67.9516 59.5068 68.093 59.2266 68.2657 58.9824C70.5078 59.6388 72.7733 60.2312 74.9879 60.9797C76.5702 61.516 76.9865 61.5 77.9956 60.2312V65.6667Z" fill="#BDD8FC"/>
<path d="M45.9948 67.8554C45.9948 70.0808 46.0066 72.3063 46.0066 74.5317C46.0066 76.2168 45.241 76.9973 43.5879 76.9973C33.2573 76.9973 22.9267 76.9973 12.5962 76.9973C9.21939 76.9973 5.84654 76.9973 2.46976 76.9973C0.753885 76.9973 0.00392648 76.2408 0.00392648 74.5037C0 51.0647 0 27.6217 0 4.18276C0 2.47767 0.746032 1.70117 2.39908 1.70117C16.13 1.70117 29.8609 1.70117 43.5918 1.70117C45.1271 1.70117 45.8339 2.33358 46.0223 3.85855C44.275 4.95525 42.5317 6.04795 40.7883 7.14465C40.6823 7.21269 40.5999 7.31276 40.5056 7.39681C40.4546 7.40481 40.4075 7.42082 40.3643 7.44884C38.4364 7.44484 36.5045 7.45284 34.5766 7.42483C33.7521 7.41282 33.1081 7.70501 32.5663 8.3254C31.6867 9.33004 30.7719 10.2987 29.9002 11.3073C29.3269 11.9757 28.6594 12.2959 27.772 12.2879C24.5759 12.2599 21.3758 12.2639 18.1757 12.2879C17.3511 12.2919 16.7111 12.0038 16.1693 11.3834C15.2583 10.3387 14.312 9.33004 13.3972 8.28938C12.871 7.693 12.2428 7.41282 11.4496 7.42483C10.0793 7.44884 8.70894 7.43283 7.3386 7.43283C5.80727 7.43283 5.62665 7.61695 5.62665 9.15793C5.62665 27.4496 5.62665 45.7453 5.62665 64.037C5.62665 64.5293 5.64236 65.0176 5.65021 65.5099C5.63843 66.9308 5.6188 68.3557 5.6188 69.7766C5.6188 71.0374 5.83868 71.2576 7.08338 71.2576C17.9244 71.2576 28.7615 71.2576 39.6025 71.2576C39.8577 71.2576 40.109 71.2416 40.3643 71.2336C40.5763 71.1055 40.7923 70.9774 41.0043 70.8493C42.6652 69.8527 44.33 68.8561 45.9909 67.8554H45.9948ZM23.0367 8.21733C23.8298 8.20533 24.2303 7.81308 24.2303 7.04859C24.2303 6.25608 23.8063 5.86383 22.966 5.87584C22.1729 5.88785 21.7763 6.27609 21.7724 7.04458C21.7724 7.83709 22.1925 8.22934 23.0328 8.21733H23.0367Z" fill="#4980AC"/>
<path d="M68.2661 58.9822C68.0972 59.2304 67.9559 59.5066 67.7478 59.7187C66.7269 60.7834 65.6864 61.8321 64.6498 62.8847C64.3474 63.1889 64.1001 63.4971 64.3906 63.9494C66.4756 66.0988 68.5606 68.2482 70.6494 70.3935C71.9138 71.6944 71.9177 72.0386 70.622 73.3634C69.656 74.3521 68.6901 75.3407 67.7164 76.3253C66.8251 77.2219 66.2714 77.2259 65.3997 76.3333C63.3344 74.232 61.2769 72.1306 59.2116 70.0293C58.5205 69.3248 58.3438 69.3248 57.6646 70.0133C56.6594 71.0339 55.6778 72.0826 54.6333 73.0632C54.3624 73.3194 53.8048 73.5796 53.5614 73.4555C53.2865 73.3194 53.0824 72.755 53.0745 72.3748C53.0313 69.9733 53.047 67.5677 53.047 65.1622C53.0392 63.361 53.0274 61.5639 53.0195 59.7627C53.53 58.3979 53.954 58.0937 55.3872 58.0897C59.2587 58.0857 63.1263 58.0897 66.9978 58.0897C67.6261 58.0897 68.1797 58.1817 68.2621 58.9782L68.2661 58.9822Z" fill="#63A4FA"/>
<path d="M53.0193 59.7695C53.0272 61.5707 53.039 63.3678 53.0468 65.169C51.2328 65.7894 49.4148 66.3898 47.6086 67.0382C47.0471 67.2423 46.5288 67.5785 45.9909 67.8547C44.33 68.8513 42.6652 69.848 41.0043 70.8486C40.7922 70.9767 40.5763 71.1048 40.3643 71.2329C40.3643 69.4317 40.3643 67.6266 40.3643 65.8254C40.3643 65.7774 40.3721 65.7253 40.376 65.6773C40.4232 65.6773 40.4703 65.6773 40.5174 65.6733C41.6718 64.9408 42.7987 64.1603 43.9805 63.4839C46.7016 61.9269 49.5326 60.6221 52.5599 59.8016C52.7052 59.7615 52.8623 59.7815 53.0115 59.7735L53.0193 59.7695Z" fill="#BDD8FC"/>
<path d="M72.6717 14.3442C72.656 15.0807 72.0042 15.6091 71.266 15.469C69.3538 15.1087 67.4573 14.6084 65.5294 14.4203C63.4955 14.2202 61.4223 14.1721 59.3845 14.3162C56.3768 14.5284 53.4319 15.2008 50.5892 16.2655C49.5683 16.6497 48.5709 17.094 47.5618 17.5103C46.7098 17.8625 46.0384 17.6504 45.7635 16.9459C45.5083 16.2895 45.8303 15.6491 46.6273 15.2888C50.7541 13.4197 55.0418 12.2429 59.569 11.8987C63.6055 11.5905 67.5476 11.9867 71.4466 13.0234C72.3694 13.2676 72.6913 13.6158 72.6756 14.3442H72.6717Z" fill="#81B6FB"/>
<path d="M62.1764 20.4863C65.345 20.6544 68.443 21.0787 71.49 21.8912C72.4245 22.1394 72.8328 22.7077 72.6483 23.4842C72.4834 24.1887 71.7531 24.4809 70.846 24.2287C66.947 23.136 62.9813 22.8759 58.9606 23.2481C54.987 23.6163 51.2097 24.705 47.5816 26.3621C47.0084 26.6222 46.4626 26.6863 45.9875 26.1459C45.4063 25.4855 45.6459 24.625 46.5372 24.2087C49.4938 22.8158 52.5604 21.7631 55.784 21.2628C57.9044 20.9306 60.0443 20.7425 62.1764 20.4903V20.4863Z" fill="#81B6FB"/>
<path d="M72.6714 31.9885C72.691 32.825 71.9882 33.3494 71.1008 33.1612C69.6166 32.849 68.1442 32.3687 66.6482 32.2607C64.1313 32.0805 61.5948 31.9925 59.0779 32.1206C55.014 32.3287 51.1857 33.5895 47.4791 35.2506C46.7016 35.5988 46.0145 35.3306 45.7554 34.6462C45.5119 33.9978 45.8221 33.3974 46.5721 33.0452C50.3965 31.244 54.4093 30.1273 58.5871 29.675C62.9848 29.1987 67.3235 29.595 71.5877 30.7917C72.1963 30.9638 72.6714 31.244 72.6675 31.9845L72.6714 31.9885Z" fill="#81B6FB"/>
<path d="M59.0112 38.3829C59.7769 38.491 60.303 38.9433 60.3305 39.6077C60.3658 40.3722 59.9143 40.8445 59.0623 40.9566C57.9864 41.1006 56.9066 41.2327 55.8347 41.4168C53.0704 41.8972 50.4436 42.8097 47.8718 43.9345C47.4163 44.1346 46.8195 44.2226 46.3561 44.0986C46.0695 44.0185 45.7122 43.4141 45.7475 43.0939C45.7947 42.6897 46.1402 42.1293 46.4936 41.9892C48.6335 41.1287 50.7813 40.2521 52.9919 39.6117C54.9512 39.0433 56.9969 38.7792 59.0073 38.3789L59.0112 38.3829Z" fill="#81B6FB"/>
<path d="M40.5213 65.6657C40.4742 65.6657 40.4271 65.6657 40.38 65.6697C40.38 65.3055 40.3682 64.9452 40.3682 64.585C40.3682 45.5408 40.3682 26.4967 40.3643 7.44852C40.4074 7.4245 40.4546 7.40449 40.5056 7.39648C40.5095 7.70468 40.5213 8.01688 40.5213 8.32508C40.5213 27.4373 40.5213 46.5495 40.5213 65.6617V65.6657Z" fill="#CFE1F5"/>
<path d="M40.3645 7.45222C40.3645 26.4964 40.3645 45.5405 40.3685 64.5887C40.3685 64.9489 40.3763 65.3132 40.3802 65.6734C40.3763 65.7214 40.3724 65.7735 40.3685 65.8215C29.3311 65.8215 18.2938 65.8255 7.25642 65.8095C6.72242 65.8095 6.18842 65.6134 5.65442 65.5093C5.64657 65.017 5.63086 64.5287 5.63086 64.0364C5.63086 45.7447 5.63086 27.449 5.63086 9.1573C5.63086 7.61632 5.81148 7.4322 7.34281 7.4322C8.71315 7.4322 10.0835 7.44821 11.4538 7.4242C12.247 7.41219 12.8752 7.69237 13.4014 8.28875C14.3162 9.32941 15.2625 10.3381 16.1735 11.3827C16.7153 12.0031 17.3553 12.2913 18.1799 12.2873C21.3761 12.2673 24.5761 12.2633 27.7762 12.2873C28.6636 12.2953 29.3311 11.9711 29.9044 11.3067C30.7761 10.294 31.6909 9.32541 32.5705 8.32477C33.1123 7.70438 33.7563 7.41219 34.5808 7.4242C36.5087 7.45222 38.4366 7.44421 40.3685 7.44821L40.3645 7.45222ZM10.6175 39.3086C10.6057 46.317 16.1067 51.9807 22.9427 52.0007C29.8141 52.0207 35.3543 46.4171 35.3818 39.4246C35.4093 32.4042 29.9201 26.7165 23.0959 26.6965C16.1774 26.6725 10.6332 32.2801 10.6175 39.3126V39.3086Z" fill="#ECF5FE"/>
<path d="M5.64963 65.5099C6.18363 65.6139 6.71763 65.8101 7.25163 65.8101C18.289 65.8261 29.3263 65.8221 40.3637 65.8221C40.3637 67.6232 40.3637 69.4284 40.3637 71.2295C40.1085 71.2375 39.8572 71.2535 39.6019 71.2535C28.7609 71.2535 17.9238 71.2535 7.08279 71.2535C5.83417 71.2535 5.61429 71.0374 5.61822 69.7726C5.61822 68.3517 5.63785 66.9268 5.64963 65.5059V65.5099Z" fill="#DCEAFC"/>
<path d="M23.0368 8.21871C22.1965 8.23072 21.7725 7.83447 21.7764 7.04596C21.7764 6.28148 22.1769 5.88923 22.97 5.87722C23.8103 5.86521 24.2344 6.26146 24.2344 7.04997C24.2344 7.81446 23.8339 8.20671 23.0407 8.21871H23.0368Z" fill="#61A3F8"/>
<path d="M10.6172 39.3095C10.629 32.277 16.1732 26.6734 23.0956 26.6934C29.9237 26.7174 35.409 32.4011 35.3815 39.4215C35.3541 46.414 29.8138 52.0176 22.9424 51.9976C16.1064 51.9776 10.6054 46.3139 10.6172 39.3055V39.3095ZM24.195 44.6729C24.195 44.3447 24.195 44.0645 24.195 43.7843C24.195 41.767 24.1989 39.7538 24.195 37.7365C24.195 36.8479 23.8691 36.3476 23.1584 36.2675C22.5341 36.1955 21.8901 36.2075 21.2658 36.2755C20.6651 36.3436 20.3156 36.7799 20.2881 37.3882C20.2607 38.0006 20.5944 38.4089 21.1677 38.593C21.3522 38.653 21.5525 38.6651 21.7645 38.7011V44.6729C21.4975 44.7009 21.2658 44.7009 21.0499 44.7569C20.4413 44.917 20.08 45.3053 20.0997 45.9777C20.1193 46.6502 20.508 47.0864 21.1245 47.1145C22.3888 47.1745 23.661 47.1745 24.9214 47.1064C25.4986 47.0744 25.8716 46.6422 25.903 46.0057C25.9344 45.3413 25.5889 44.9371 24.9803 44.765C24.7643 44.7049 24.5287 44.7049 24.195 44.6689V44.6729ZM22.9817 33.9741C23.822 33.9821 24.3638 33.5298 24.3835 32.7973C24.407 32.0328 23.8495 31.5325 22.9817 31.5405C22.1493 31.5485 21.6192 32.0208 21.6192 32.7613C21.6192 33.5018 22.1454 33.9701 22.9817 33.9781V33.9741Z" fill="#F4DD46"/>
<path d="M24.1957 44.6689C24.5294 44.7089 24.765 44.7049 24.981 44.765C25.5896 44.9331 25.9351 45.3373 25.9037 46.0058C25.8723 46.6382 25.4993 47.0745 24.9221 47.1065C23.6578 47.1745 22.3895 47.1745 21.1252 47.1145C20.5087 47.0865 20.12 46.6502 20.1004 45.9778C20.0807 45.3053 20.442 44.9211 21.0506 44.757C21.2665 44.7009 21.4982 44.7009 21.7652 44.6729V38.7011C21.5571 38.6651 21.3529 38.6531 21.1684 38.593C20.5951 38.4089 20.2614 38.0007 20.2888 37.3883C20.3163 36.7799 20.6658 36.3436 21.2665 36.2756C21.8908 36.2075 22.5348 36.1955 23.1591 36.2675C23.8737 36.3476 24.1918 36.8479 24.1957 37.7365C24.2035 39.7538 24.1957 41.7671 24.1957 43.7843C24.1957 44.0645 24.1957 44.3447 24.1957 44.6729V44.6689Z" fill="#3C637C"/>
<path d="M22.9816 33.9709C22.1414 33.9629 21.6191 33.4986 21.6191 32.7541C21.6191 32.0176 22.1492 31.5413 22.9816 31.5333C23.8494 31.5253 24.4069 32.0256 24.3834 32.7901C24.3638 33.5226 23.8219 33.9749 22.9816 33.9669V33.9709Z" fill="#3C637C"/>
</svg>
