<svg width="77" height="77" viewBox="0 0 77 77" fill="none" xmlns="http://www.w3.org/2000/svg">
<path d="M47.792 69.4585C47.792 71.3544 47.792 73.2504 47.792 75.1463C47.792 76.4621 47.2708 76.9918 45.9593 76.996C42.7269 77.0044 39.4987 76.996 36.2664 76.996C25.5604 76.996 14.8544 76.9876 4.14844 76.9834C4.14844 76.6344 4.15684 76.2897 4.15684 75.9408C4.15684 55.6531 4.15684 35.3697 4.15684 15.082C5.28335 15.082 6.40985 15.082 7.53635 15.082C18.1162 15.082 28.6961 15.082 39.276 15.0862C39.5492 15.0862 39.8266 15.1997 40.0998 15.2586C40.0998 17.1209 40.0914 18.9874 40.0914 20.8497C40.0914 22.115 40.7303 22.7624 42.0082 22.7666C43.8702 22.775 45.7365 22.7666 47.5986 22.7582C47.6617 23.0315 47.7752 23.3047 47.7752 23.578C47.792 24.9947 47.792 26.4113 47.7752 27.8238C47.7752 28.1055 47.6743 28.3871 47.6239 28.673C47.5188 28.6814 47.4137 28.6898 47.3128 28.694C46.8841 28.652 46.4595 28.6141 46.0308 28.5721C45.7491 28.5217 45.4591 28.4166 45.1817 28.4334C44.0258 28.5048 42.8698 28.6141 41.7139 28.7108C41.2347 28.5511 40.7556 28.2484 40.2764 28.2442C31.8822 28.2148 23.4923 28.2232 15.0982 28.2232C12.4795 28.2232 9.86081 28.219 7.24211 28.2232C6.4771 28.2232 5.76673 28.8622 5.77094 29.5096C5.77094 30.1233 6.45188 30.7413 7.18747 30.7833C7.37242 30.7959 7.56157 30.7833 7.75072 30.7833C11.9205 30.7833 16.0902 30.7833 20.2599 30.7833C25.5772 30.7875 30.8987 30.7959 36.2159 30.8043C34.6355 32.1412 33.055 33.4822 31.4745 34.819C23.5764 34.8148 15.6741 34.8064 7.77594 34.8022C6.54436 34.8022 5.80456 35.2646 5.77514 36.0549C5.74572 36.8452 6.54856 37.3665 7.79276 37.3707C15.1318 37.3749 22.4709 37.3791 29.81 37.3875C29.2762 38.7159 28.7423 40.0443 28.2085 41.377C28.1581 41.3812 28.1076 41.3938 28.0614 41.4148C21.1426 41.4064 14.2197 41.398 7.30096 41.398C6.50232 41.398 5.79616 41.9949 5.77514 42.6423C5.74992 43.3359 6.49392 43.9581 7.37662 43.9581C14.1651 43.9581 20.9493 43.9581 27.7377 43.9581C27.7377 45.2991 27.7461 46.6359 27.7503 47.977C21.0964 47.977 14.4383 47.977 7.78435 47.9854C7.4691 47.9854 7.14123 48.0022 6.83439 48.0779C6.15765 48.246 5.78775 48.721 5.78775 49.4063C5.78775 50.0074 6.41405 50.5077 7.11601 50.5455C7.35561 50.5581 7.5952 50.5497 7.83899 50.5497C14.6821 50.5497 21.5252 50.5497 28.3682 50.5497C28.9315 51.8865 29.4947 53.2233 30.058 54.5644C22.6895 54.5644 15.3168 54.5644 7.94828 54.577C7.50272 54.577 6.98571 54.577 6.62842 54.783C6.26273 55.0016 5.855 55.4724 5.83819 55.8465C5.82138 56.2207 6.21229 56.6789 6.53595 56.9732C6.7293 57.1497 7.14123 57.1245 7.45228 57.1245C10.8948 57.1329 14.3416 57.1161 17.7842 57.1329C21.7858 57.1539 25.7874 57.2044 29.7932 57.2254C30.5077 57.2254 31.2181 57.1581 31.9327 57.1203C33.3408 58.7556 35.0852 59.9705 36.9011 61.0929C36.8885 61.1391 36.88 61.1854 36.8716 61.2316C36.5228 61.24 36.1781 61.2484 35.8292 61.2484C26.5019 61.2484 17.1747 61.2484 7.8516 61.2484C7.55737 61.2484 7.26313 61.24 6.9689 61.2611C6.31317 61.3031 5.83399 61.7655 5.84239 62.2994C5.8466 62.7534 6.25012 63.2915 6.62422 63.6236C6.87222 63.8422 7.38503 63.8044 7.77594 63.8086C12.8536 63.817 17.9313 63.817 23.0089 63.817C28.7297 63.817 34.4463 63.817 40.1671 63.817C40.9447 63.817 41.6761 63.7203 42.025 62.8753L46.2031 63.0056C46.7369 62.9678 47.2708 62.9342 47.8004 62.8963C47.8004 65.0823 47.8004 67.2683 47.8004 69.4501L47.792 69.4585ZM23.9673 67.8442C18.545 67.8442 13.1184 67.8442 7.69608 67.8442C7.45649 67.8442 7.21269 67.84 6.9731 67.8526C6.25853 67.8905 5.83819 68.416 5.83819 68.9835C5.83819 69.4081 6.25012 69.9209 6.62002 70.2194C6.88483 70.4338 7.38083 70.4044 7.77594 70.4044C18.5702 70.4128 29.3644 70.4128 40.1587 70.4044C40.5244 70.4044 40.9657 70.417 41.2389 70.2278C41.571 70.0008 41.9577 69.5762 41.9703 69.2231C41.9829 68.8195 41.6887 68.3319 41.3819 68.025C41.1885 67.8316 40.7345 67.8526 40.3983 67.8526C34.9213 67.8442 29.4443 67.8442 23.9673 67.8442ZM16.2709 21.6442C13.3076 21.6442 10.3442 21.6232 7.38083 21.6652C6.95208 21.6694 6.42666 21.8712 6.13663 22.1655C5.90544 22.4009 5.82138 22.96 5.91805 23.3047C6.10721 23.9689 6.70408 24.2043 7.36822 24.2085C13.295 24.2085 19.2217 24.2169 25.1485 24.2085C26.1867 24.2085 26.6322 23.7713 26.6196 22.8633C26.6112 21.9511 26.2581 21.6484 25.1569 21.6484C22.1935 21.6442 19.2301 21.6484 16.2667 21.6484L16.2709 21.6442Z" fill="#EBEEF0"/>
<path d="M62.5624 7.52316C62.6633 7.92672 62.8524 8.33029 62.8524 8.73386C62.8693 25.1666 62.865 41.5952 62.8608 58.0279C62.8608 58.2675 62.8188 58.5029 62.7978 58.7426C61.6419 57.6664 60.4859 56.5902 59.33 55.514C59.4519 55.308 59.5696 55.0978 59.6915 54.8919C62.8735 49.4605 63.1383 43.8778 60.5364 38.1606C59.3636 35.5837 57.4889 33.5616 55.3242 31.7834C55.3242 26.5497 55.3326 21.3201 55.3242 16.0863C55.3242 15.8047 55.2233 15.5188 55.1687 15.2372C54.2818 14.3249 53.4075 13.4001 52.508 12.5047C50.8939 10.8946 49.2588 9.30138 47.6363 7.70392C47.2706 7.64927 46.9091 7.54838 46.5434 7.54838C36.0476 7.53997 25.5518 7.54418 15.0518 7.54418C15.0518 5.62303 15.0518 3.70188 15.0602 1.78073C15.0644 0.612069 15.6612 0.00251421 16.8424 0.00251421C29.3306 -0.00168962 41.8188 -0.00168962 54.3112 0.0109219C54.6601 0.0109219 55.0048 0.200094 55.3536 0.300986C55.2906 0.574234 55.1813 0.847483 55.1771 1.12073C55.1603 2.77284 55.1687 4.42494 55.1687 6.07704C55.1687 7.11959 55.7319 7.69131 56.787 7.69551C58.4935 7.70392 60.1959 7.70392 61.9025 7.69131C62.1211 7.69131 62.3438 7.57781 62.5624 7.51895V7.52316Z" fill="#B0B0B4"/>
<path d="M15.0523 7.53898C25.5481 7.53898 36.0439 7.53898 46.5439 7.54318C46.9096 7.54318 47.2711 7.64407 47.6368 7.69872C47.6368 9.59044 47.6284 11.4822 47.6368 13.3739C47.6368 14.6224 48.2505 15.232 49.4989 15.2362C51.3904 15.2404 53.2819 15.2362 55.1734 15.2362C55.228 15.5178 55.3289 15.8037 55.3289 16.0854C55.3373 21.3191 55.3289 26.5487 55.3289 31.7824C54.6942 31.3873 54.0763 30.9669 53.4248 30.6096C51.6173 29.6217 49.7258 28.8692 47.6368 28.7305V28.6758C47.6956 28.3942 47.7923 28.1125 47.7923 27.8266C47.8091 26.4099 47.8091 24.9933 47.7923 23.5808C47.7923 23.3075 47.6746 23.0343 47.6157 22.761C47.498 22.5634 47.414 22.3322 47.2585 22.1725C45.0811 19.9781 42.8954 17.7921 40.7054 15.6145C40.5457 15.459 40.3145 15.3749 40.1169 15.2572C39.8437 15.1983 39.5663 15.0848 39.2931 15.0848C28.7132 15.0764 18.1333 15.0806 7.55346 15.0806C7.55346 13.1595 7.54085 11.2425 7.55346 9.3214C7.55766 8.12751 8.14193 7.54318 9.31046 7.53898C11.2314 7.53477 13.1481 7.53898 15.0691 7.53898H15.0523Z" fill="#D0D0D5"/>
<path d="M4.16133 15.0806C4.16133 35.3683 4.16133 55.6517 4.16133 75.9394C4.16133 76.2883 4.15713 76.633 4.15293 76.9819C3.40473 76.9819 2.65653 76.9945 1.90833 76.9945C0.647318 76.9945 0 76.3387 0 75.065C0 63.6558 0 52.2508 0 40.8459C0 32.9385 0 25.0311 0 17.1279C0 15.5893 0.647318 14.9251 2.18575 14.9377C2.84568 14.9419 3.5014 15.0302 4.16133 15.0848V15.0806Z" fill="#D0D0D5"/>
<path d="M64.6432 60.689C64.7987 60.6175 64.9585 60.5461 65.114 60.4746C66.4675 61.7484 67.8336 63.0095 69.1702 64.3001C71.0701 66.1245 72.9533 67.9616 74.8364 69.8071C75.4921 70.4503 75.6266 71.2953 75.0886 71.8796C73.8234 73.2416 72.5035 74.549 71.2047 75.8774C70.8558 75.5916 70.4817 75.3309 70.1622 75.0198C67.388 72.3252 64.618 69.6263 61.8522 66.9233C60.6206 65.721 60.5827 65.1787 61.6042 63.8545C62.3986 63.0558 63.193 62.2528 63.9875 61.4541C64.206 61.2019 64.4204 60.9454 64.639 60.6932L64.6432 60.689Z" fill="#EBB978"/>
<path d="M47.792 69.4555C47.792 67.2694 47.792 65.0832 47.792 62.9013C47.8845 62.8508 47.9728 62.7709 48.0736 62.7541C50.7556 62.3379 53.1139 61.1734 55.3292 59.6641C55.3292 60.425 55.3292 61.1902 55.3334 61.9511C55.3334 63.8472 55.3334 65.7391 55.3334 67.6351C55.3334 68.9132 54.808 69.4513 53.5553 69.4555C51.6342 69.4555 49.7131 69.4555 47.792 69.4555Z" fill="#D0D0D5"/>
<path d="M62.5644 7.52322C62.3458 7.58208 62.123 7.69559 61.9044 7.69559C60.1977 7.7082 58.4952 7.7082 56.7885 7.6998C55.7334 7.69559 55.1701 7.12383 55.1701 6.0812C55.1701 4.42896 55.1617 2.77673 55.1785 1.1245C55.1785 0.851228 55.292 0.577958 55.355 0.304688C57.7595 2.70946 60.1641 5.11424 62.5686 7.52322H62.5644Z" fill="#A69AA6"/>
<path d="M71.2049 75.8727C72.5038 74.5443 73.8236 73.2369 75.0888 71.8748C75.6269 71.2947 75.4924 70.4497 74.8366 69.8024C72.9577 67.9569 71.0704 66.1198 69.1705 64.2954C67.8296 63.009 66.4677 61.7436 65.1143 60.4699C65.8541 60.1756 66.5224 60.1798 67.1445 60.7852C70.1835 63.7531 73.2478 66.6957 76.291 69.6594C77.2157 70.559 77.22 71.3536 76.333 72.291C75.2864 73.3924 74.2398 74.4938 73.1679 75.5658C72.5122 76.2258 71.8649 76.2973 71.2049 75.8685V75.8727Z" fill="#E3A871"/>
<path d="M63.9884 61.4491C63.1939 62.2479 62.3994 63.0509 61.6049 63.8497C61.0878 63.3578 60.5834 62.8533 60.0537 62.3783C59.8436 62.1933 59.5787 62.0714 59.3391 61.92C59.1836 61.6846 59.0617 61.4239 58.8725 61.2221C58.078 60.3813 57.2625 59.5615 56.4512 58.7333C57.191 57.9681 57.9309 57.1987 58.6707 56.4336C60.2849 58.0186 61.895 59.6077 63.5134 61.1885C63.6395 61.3104 63.8287 61.3651 63.9884 61.4533V61.4491Z" fill="#A69BA6"/>
<path d="M63.9876 61.4502C63.8279 61.362 63.6387 61.3073 63.5126 61.1854C61.8942 59.6046 60.2841 58.0154 58.6699 56.4305C58.8885 56.1236 59.1071 55.8167 59.3257 55.5098C60.4817 56.586 61.6377 57.6623 62.7937 58.7386C63.4075 59.386 64.0212 60.0376 64.6392 60.6851C64.4206 60.9373 64.2062 61.1938 63.9876 61.446V61.4502Z" fill="#857884"/>
<path d="M56.4505 58.7305C57.2576 59.5587 58.0731 60.3827 58.8718 61.2193C59.061 61.4211 59.1829 61.6818 59.3384 61.9172C58.0017 61.9298 56.6691 61.9424 55.3323 61.9551C55.3323 61.1941 55.3323 60.4289 55.3281 59.668C55.7023 59.3569 56.0764 59.0416 56.4547 58.7305H56.4505Z" fill="#B0B0B4"/>
<path d="M46.1939 63.0102C44.8026 62.9682 43.4071 62.9219 42.0158 62.8799C40.4143 62.3418 38.817 61.8037 37.2155 61.2614C37.1062 61.2068 37.0011 61.1521 36.8919 61.0975C35.076 59.975 33.3316 58.7601 31.9235 57.1248C31.2972 56.2715 30.6709 55.4139 30.0446 54.5605C29.4813 53.2237 28.9181 51.8869 28.3548 50.5459C28.1489 49.6883 27.9471 48.8307 27.7411 47.9731C27.7411 46.6321 27.7327 45.2953 27.7285 43.9543C27.884 43.1513 28.0354 42.3442 28.1909 41.5413C28.1909 41.4866 28.1993 41.432 28.1993 41.3773C28.7331 40.0489 29.2669 38.7205 29.8008 37.3879C30.3556 36.5345 30.9105 35.6811 31.4611 34.8236C33.0416 33.4867 34.622 32.1457 36.2025 30.8089C38.0352 30.1069 39.872 29.4048 41.7047 28.707C42.8606 28.6103 44.0166 28.501 45.1725 28.4295C45.4499 28.4127 45.7399 28.5178 46.0216 28.5683C46.4503 28.6103 46.8748 28.6481 47.3036 28.6902C47.4087 28.6818 47.5138 28.6734 47.6146 28.6692L47.6104 28.7238C47.8374 28.8751 48.0434 29.0937 48.2914 29.161C51.8684 30.1363 54.7562 32.1793 57.0008 35.0506C60.0314 38.9307 61.1285 43.3783 60.4559 48.2758C59.9515 51.9752 58.3458 55.1322 55.7944 57.7806C53.2934 60.3744 50.2039 62.0013 46.6521 62.7159C46.4797 62.7496 46.3326 62.9051 46.1729 63.0018L46.1939 63.0102ZM44.4285 58.0497C51.4355 58.2052 57.1395 52.9336 57.253 45.8628C57.3665 38.8256 51.4523 33.1378 44.5798 33.5456C43.9955 33.5666 43.3987 33.5204 42.8312 33.6213C39.9393 34.1299 37.5392 35.534 35.6308 37.7578C33.2349 40.5492 32.3018 43.8534 32.7768 47.435C33.2055 50.6846 34.8112 53.4213 37.4341 55.4559C39.4811 57.045 41.8308 57.911 44.4285 58.0497Z" fill="#FEE077"/>
<path d="M23.968 67.8386C29.445 67.8386 34.922 67.8386 40.3989 67.847C40.7352 67.847 41.1934 67.826 41.3825 68.0193C41.6894 68.3304 41.9836 68.8181 41.971 69.2174C41.9584 69.5705 41.5717 69.9951 41.2396 70.2221C40.9664 70.4071 40.525 70.3987 40.1593 70.3987C29.3651 70.4071 18.5709 70.4071 7.77662 70.3987C7.3815 70.3987 6.88551 70.4281 6.62069 70.2137C6.2508 69.9153 5.83887 69.3982 5.83887 68.9778C5.83887 68.4103 6.2592 67.8848 6.97378 67.847C7.21337 67.8344 7.45296 67.8386 7.69675 67.8386C13.1191 67.8386 18.5456 67.8386 23.968 67.8386Z" fill="#A69AA6"/>
<path d="M37.2173 61.2576C38.8188 61.7957 40.4161 62.3338 42.0176 62.8761C41.6687 63.7253 40.9373 63.8178 40.1597 63.8178C34.4389 63.8178 28.7223 63.8178 23.0015 63.8178C17.9239 63.8178 12.8462 63.8178 7.76854 63.8094C7.37342 63.8094 6.86481 63.843 6.61681 63.6244C6.24272 63.2923 5.83919 62.7542 5.83499 62.3002C5.83079 61.7663 6.30577 61.3039 6.96149 61.2618C7.25573 61.2408 7.54996 61.2492 7.8442 61.2492C17.1715 61.2492 26.4987 61.2492 35.8218 61.2492C36.1707 61.2492 36.5154 61.2366 36.8642 61.2324C36.9819 61.2408 37.0996 61.2492 37.2173 61.2576Z" fill="#A69BA6"/>
<path d="M41.7236 28.7095C39.8909 29.4116 38.054 30.1136 36.2213 30.8114C30.9041 30.803 25.5826 30.7946 20.2654 30.7904C16.0956 30.7904 11.9259 30.7904 7.75615 30.7904C7.567 30.7904 7.38205 30.7988 7.1929 30.7904C6.45731 30.7442 5.77637 30.1304 5.77637 29.5167C5.77637 28.8693 6.48253 28.2345 7.24755 28.2303C9.86624 28.2219 12.4849 28.2303 15.1036 28.2303C23.4978 28.2303 31.8877 28.2219 40.2818 28.2513C40.761 28.2513 41.2402 28.554 41.7194 28.7179L41.7236 28.7095Z" fill="#A69BA6"/>
<path d="M30.0501 54.5586C30.6764 55.412 31.3027 56.2696 31.929 57.1229C31.2144 57.1608 30.5041 57.2322 29.7895 57.228C25.7879 57.207 21.7863 57.1524 17.7805 57.1355C14.3379 57.1187 10.8912 57.1355 7.4486 57.1271C7.13755 57.1271 6.72562 57.1524 6.53227 56.9758C6.20861 56.6773 5.8177 56.2233 5.83451 55.8492C5.85132 55.4708 6.25905 55 6.62474 54.7856C6.98203 54.5754 7.49904 54.5796 7.9446 54.5796C15.3131 54.567 22.6858 54.567 30.0543 54.567L30.0501 54.5586Z" fill="#A69BA6"/>
<path d="M31.4743 34.8296C30.9194 35.683 30.3646 36.5364 29.8139 37.3939C22.4749 37.3897 15.1358 37.3855 7.79672 37.3771C6.55252 37.3771 5.74968 36.8559 5.7791 36.0613C5.80853 35.271 6.54412 34.8086 7.7799 34.8086C15.678 34.8128 23.5804 34.8212 31.4785 34.8254L31.4743 34.8296Z" fill="#A79BA7"/>
<path d="M27.75 47.9707C27.956 48.8283 28.1577 49.6859 28.3637 50.5434C21.5206 50.5434 14.6775 50.5434 7.83445 50.5434C7.59485 50.5434 7.35106 50.5519 7.11147 50.5392C6.4095 50.5014 5.7832 50.0012 5.7832 49.4C5.7832 48.7148 6.1573 48.244 6.82984 48.0716C7.13669 47.9959 7.46035 47.9791 7.7798 47.9791C14.4337 47.9707 21.0919 47.9707 27.7458 47.9707H27.75Z" fill="#A69BA6"/>
<path d="M28.2019 41.5436C28.0464 42.3465 27.8951 43.1537 27.7396 43.9566C20.9511 43.9566 14.1669 43.9608 7.37847 43.9566C6.49577 43.9566 5.75177 43.3344 5.77699 42.6408C5.80221 41.9976 6.50417 41.3965 7.30281 41.3965C14.2216 41.3965 21.1445 41.4049 28.0632 41.4133C28.1095 41.4553 28.1557 41.4974 28.1977 41.5394L28.2019 41.5436Z" fill="#A69AA6"/>
<path d="M46.1953 63.0085C46.355 62.9118 46.5022 62.7562 46.6745 62.7226C50.2263 62.0079 53.3116 60.3811 55.8168 57.7873C58.3725 55.1431 59.9739 51.9818 60.4784 48.2825C61.1467 43.385 60.0538 38.9374 57.0232 35.0572C54.7786 32.1818 51.8867 30.1388 48.3138 29.1677C48.0658 29.1004 47.8598 28.8776 47.6329 28.7305C49.7219 28.8692 51.6092 29.6259 53.4209 30.6096C54.0766 30.9669 54.6903 31.3915 55.325 31.7824C57.4898 33.5565 59.3603 35.5827 60.5372 38.1596C63.1391 43.8769 62.8785 49.4595 59.6923 54.8909C59.5704 55.0969 59.4527 55.3071 59.3308 55.513C59.1123 55.8199 58.8937 56.1268 58.6751 56.4337C57.9353 57.1988 57.1955 57.9681 56.4557 58.7332C56.0816 59.0443 55.7075 59.3595 55.3292 59.6706C53.1141 61.1756 50.756 62.3443 48.0742 62.7604C47.9775 62.7772 47.8851 62.8571 47.7926 62.9076C47.2588 62.9454 46.7249 62.979 46.1953 63.0169V63.0085Z" fill="#FDCF65"/>
<path d="M16.2716 21.6442C19.235 21.6442 22.1984 21.6442 25.1618 21.6442C26.2588 21.6442 26.6119 21.9469 26.6245 22.8591C26.6329 23.7672 26.1916 24.2001 25.1534 24.2044C19.2266 24.2128 13.2999 24.2128 7.37312 24.2044C6.70899 24.2044 6.10791 23.9689 5.92296 23.3005C5.82628 22.9558 5.90615 22.3967 6.14154 22.1613C6.43157 21.867 6.95699 21.6652 7.38573 21.661C10.3491 21.619 13.3125 21.64 16.2759 21.64L16.2716 21.6442Z" fill="#A69BA6"/>
<path d="M40.108 15.2539C40.3056 15.3716 40.5368 15.4557 40.6965 15.6113C42.8909 17.789 45.0726 19.9752 47.2501 22.1697C47.4056 22.3295 47.4897 22.5607 47.6074 22.7583C45.7452 22.7583 43.8787 22.7751 42.0165 22.7667C40.7386 22.7625 40.0996 22.1151 40.0996 20.8496C40.0996 18.9872 40.0996 17.1206 40.108 15.2581V15.2539Z" fill="#A79BA7"/>
<path d="M37.2164 61.2577C37.0987 61.2493 36.981 61.2409 36.8633 61.2325C36.8717 61.1862 36.8801 61.14 36.8927 61.0938C37.002 61.1484 37.1071 61.2031 37.2164 61.2577Z" fill="#D0CCD3"/>
<path d="M28.1999 41.5448C28.1537 41.5028 28.1075 41.4607 28.0654 41.4187C28.1117 41.3977 28.1621 41.3851 28.2126 41.3809C28.2126 41.4355 28.2042 41.4902 28.1999 41.5448Z" fill="#B5ACB6"/>
<path d="M55.17 15.2373C53.2783 15.2373 51.3866 15.2457 49.495 15.2373C48.2465 15.2373 47.6369 14.6235 47.6327 13.3748C47.6285 11.483 47.6327 9.59109 47.6327 7.69922C49.2596 9.2968 50.8906 10.8902 52.5048 12.5004C53.4044 13.3958 54.2788 14.3208 55.1658 15.2331L55.17 15.2373Z" fill="#A69AA6"/>
<path d="M44.5807 33.546C51.4532 33.1383 57.3631 38.8218 57.2538 45.8632C57.1403 52.9341 51.4405 58.2057 44.4293 58.0501C44.1435 57.903 43.8745 57.6886 43.5719 57.6171C40.806 56.9866 38.5993 55.4564 36.8633 53.283C32.4708 47.7886 33.8158 39.5449 39.6837 35.5639C41.1843 34.5423 42.8531 33.9832 44.5807 33.5502V33.546Z" fill="#EBEEF0"/>
<path d="M44.5807 33.5452C42.8489 33.9782 41.1843 34.5415 39.6837 35.5589C33.8201 39.5399 32.4708 47.7836 36.8633 53.278C38.5993 55.4514 40.806 56.9815 43.5719 57.6121C43.8745 57.6794 44.1435 57.898 44.4293 58.0451C41.8275 57.9022 39.482 57.0362 37.4349 55.4513C34.812 53.4167 33.2064 50.68 32.7776 47.4305C32.3068 43.853 33.2358 40.5446 35.6317 37.7533C37.54 35.5336 39.9402 34.1253 42.8321 33.6167C43.4037 33.5158 43.9964 33.562 44.5807 33.541V33.5452Z" fill="#D2D1D5"/>
</svg>
