<svg width="77" height="80" viewBox="0 0 77 80" fill="none" xmlns="http://www.w3.org/2000/svg">
<path d="M34.2914 52.6525C34.3087 52.8429 34.2914 53.0565 34.3606 53.2239C35.1168 54.9959 34.3606 56.6351 32.5136 57.2008C32.4213 57.2296 32.3405 57.2989 32.2539 57.3508C30.4357 57.3508 28.6118 57.3393 26.7936 57.3451C26.0202 57.3451 25.7201 57.6567 25.7085 58.4302C25.697 58.9497 25.7027 59.4691 25.7085 59.9886C25.7374 61.9915 24.9697 63.6134 23.3709 64.8313C22.28 65.4546 21.114 65.6913 19.8558 65.6509C18.4243 65.6047 16.9929 65.6393 15.5672 65.6393C14.4474 65.6393 14.0376 65.9568 13.7548 67.0477C12.6351 71.3651 11.5211 75.6825 10.4013 79.9999H1.01614C0.363911 79.5497 0.190752 78.9725 0.398542 78.1875C2.19362 71.3363 3.9252 64.4734 5.78954 57.6394C6.06659 56.6178 6.91506 55.7347 7.54998 54.8285C8.91216 52.9007 10.3205 51.0017 11.6942 49.0739C11.8443 48.8661 11.8558 48.5544 11.9309 48.2947C12.1906 48.0984 12.5081 47.9483 12.6986 47.7001C13.5586 46.5688 14.384 45.4087 15.2151 44.2601C16.2772 42.794 17.9452 42.5573 19.4229 43.6771C20.5426 44.5256 20.6696 46.338 19.7519 47.6078C18.9957 48.6467 18.3031 49.7319 17.5816 50.7939C17.5124 51.5096 17.8818 51.752 18.5513 51.7347C19.5268 51.7116 20.5022 51.729 21.4777 51.7232C22.0029 51.6712 22.5282 51.6193 23.0476 51.5731C23.3189 51.6251 23.5844 51.7232 23.8557 51.7232C26.2511 51.7347 28.6464 51.7405 31.0418 51.7232C32.0692 51.7174 33.0793 51.7001 33.8469 52.5659C33.9278 52.6582 34.1355 52.6352 34.2856 52.664L34.2914 52.6525Z" fill="#F8B09F"/>
<path d="M38.3551 79.9926H13.8301C14.7132 76.5583 15.6021 73.124 16.4852 69.6897C16.7507 68.645 17.0335 68.4257 18.1186 68.4257C19.654 68.4257 21.1893 68.4314 22.7246 68.4257C24.1907 68.4141 25.5702 68.0678 26.6669 67.0462C27.2614 66.4921 27.9252 65.9206 27.8963 64.974C28.0002 64.9279 28.1041 64.8817 28.208 64.8355C28.462 64.7951 28.7159 64.7662 28.9641 64.7028C30.586 64.2814 32.0175 63.4676 33.3566 62.4863C33.6105 62.5383 33.8587 62.6018 34.1127 62.6364C39.0939 63.2771 43.1689 67.785 43.2266 73.0548C43.2439 74.6016 43.3478 76.1601 43.5671 77.6896C43.6883 78.5381 43.671 79.2769 43.2093 79.9869H40.8659C40.8659 78.0648 40.8774 76.137 40.8543 74.2149C40.8428 73.2856 40.2771 72.6276 39.5787 72.6449C38.7822 72.6623 38.3724 73.1875 38.3666 74.2149C38.3666 76.137 38.3666 78.0648 38.3666 79.9869L38.3551 79.9926Z" fill="#ABD87F"/>
<path d="M43.1965 79.9921C43.6582 79.2764 43.6755 78.5375 43.5543 77.6948C43.335 76.1653 43.2311 74.6069 43.2138 73.06C43.1618 67.7902 39.0811 63.2823 34.0999 62.6416C33.8459 62.607 33.5919 62.5435 33.3438 62.4915C33.667 62.1337 33.9902 61.7758 34.3134 61.418C36.2182 61.7701 38.1691 61.9778 40.0277 62.5031C44.3162 63.7094 47.2195 67.3804 47.5831 71.8075C47.7447 73.7757 47.8602 75.7439 48.0507 77.7064C48.1546 78.7338 47.7967 79.4611 46.9482 79.9921H43.1965Z" fill="#8BC851"/>
<path d="M27.8853 64.9743C27.9142 65.9209 27.2504 66.4923 26.6559 67.0464C25.5592 68.0681 24.1855 68.4144 22.7136 68.4259C21.1783 68.4375 19.643 68.4259 18.1076 68.4259C17.0225 68.4259 16.7397 68.6452 16.4742 69.69C15.5911 73.1243 14.7022 76.5586 13.8191 79.9929H10.3848C11.5045 75.6755 12.6185 71.3581 13.7383 67.0406C14.0211 65.9497 14.4309 65.6381 15.5507 65.6323C16.9821 65.6323 18.4135 65.5977 19.8392 65.6438C21.0975 65.6842 22.2634 65.4534 23.3543 64.8242C24.8492 65.2398 26.3615 65.1359 27.8795 64.9743H27.8853Z" fill="#8BC851"/>
<path d="M38.3545 79.9944C38.3545 78.0723 38.3545 76.1445 38.3545 74.2225C38.3545 73.1951 38.7643 72.6698 39.5666 72.6525C40.265 72.641 40.8307 73.2932 40.8422 74.2225C40.8653 76.1445 40.8537 78.0723 40.8537 79.9944H38.3545Z" fill="#8CC851"/>
<path d="M17.5815 50.7809C18.303 49.7189 19.0014 48.6337 19.7518 47.5948C20.6753 46.325 20.5483 44.5126 19.4228 43.6641C17.9451 42.5443 16.2771 42.781 15.215 44.2471C14.3839 45.4014 13.5585 46.5558 12.6984 47.6871C12.508 47.9353 12.1905 48.0854 11.9308 48.2816C11.319 47.664 10.5859 47.1273 10.1184 46.4115C9.28723 45.1359 8.5946 43.768 7.90197 42.4058C7.71149 42.0249 7.53833 41.8517 7.10544 41.8632C5.91065 41.8921 4.71585 41.8863 3.52106 41.8632C1.599 41.8344 0.173335 40.3164 0.0232641 38.3943C-0.109491 36.6569 0.317633 35.1851 1.5182 33.9326C2.78802 33.8056 4.05208 33.6209 5.32768 33.5632C6.78798 33.4997 6.78798 33.5459 6.96691 32.126C6.99577 31.8951 7.05349 31.6642 7.08812 31.4333C7.648 27.0986 9.06213 23.1044 11.8096 19.647C13.0679 18.0655 14.1761 18.002 15.544 19.4623C15.7229 19.6528 15.8672 19.8779 16.0693 20.0395C17.2756 21.015 18.4184 22.1059 19.7344 22.9024C21.1543 23.7567 22.6031 23.4046 23.6421 22.2906C24.479 21.3844 24.9119 21.2805 26.0432 21.7827C29.7719 23.4392 33.6448 24.5705 37.7083 25.0265C38.8165 25.1477 39.9132 25.3151 41.0156 25.4652C41.7833 28.9283 42.1296 32.4088 41.4023 35.9181C40.6866 39.3582 39.0474 42.2904 36.6001 44.8243C34.8858 46.5962 32.9637 48.0623 30.805 49.2167C28.3866 50.5038 25.8354 51.4158 23.0533 51.5486C22.5281 51.6005 22.0028 51.6525 21.4833 51.6986C21.3448 51.6467 21.2121 51.5832 21.0735 51.5486C19.9134 51.2831 18.7474 51.0291 17.5873 50.7693L17.5815 50.7809ZM29.3332 40.0855C28.1326 40.5068 26.9725 40.8589 25.87 41.3322C25.2293 41.6035 25.0735 42.2846 25.3505 42.8502C25.6334 43.439 26.3087 43.716 26.9378 43.3639C28.5309 42.4751 30.0778 42.4578 31.6766 43.3466C32.3173 43.7045 33.0041 43.4505 33.287 42.8906C33.5756 42.325 33.3909 41.5689 32.7502 41.2976C31.6651 40.8416 30.528 40.5011 29.3332 40.0797V40.0855ZM38.9954 35.8142C38.9954 35.8142 38.9608 35.8142 38.9492 35.8142C38.9492 35.5834 38.9723 35.3467 38.9492 35.1158C38.8742 34.429 38.3316 33.9211 37.7256 33.9441C37.0964 33.9672 36.6462 34.4694 36.6231 35.1967C36.6116 35.6353 36.6116 36.074 36.6289 36.5127C36.6578 37.1591 37.0618 37.5054 37.6621 37.5805C38.2393 37.6555 38.6664 37.3496 38.8511 36.8013C38.955 36.4896 38.955 36.1432 39.0012 35.8142H38.9954ZM19.1053 35.7565C19.1053 35.7565 19.1053 35.7565 19.1111 35.7565C19.1111 35.9874 19.1111 36.2241 19.1111 36.4549C19.1284 37.136 19.5324 37.5227 20.1616 37.5805C20.808 37.644 21.2525 37.2746 21.3794 36.6339C21.4545 36.2587 21.4487 35.8662 21.4429 35.4795C21.4314 34.5387 20.9754 33.9557 20.2712 33.9384C19.5555 33.9211 19.1168 34.4867 19.1053 35.4448C19.1053 35.5487 19.1053 35.6526 19.1053 35.7565Z" fill="#F9A58D"/>
<path d="M41.0097 25.4784C39.9072 25.3283 38.8048 25.1609 37.7024 25.0397C33.6389 24.5895 29.7659 23.4524 26.0373 21.7959C24.906 21.2937 24.4731 21.4034 23.6361 22.3038C22.603 23.4178 21.1484 23.7699 19.7285 22.9156C18.4125 22.1191 17.2697 21.0282 16.0633 20.0527C15.8613 19.8911 15.717 19.666 15.5381 19.4755C14.1701 18.0152 13.0619 18.0787 11.8037 19.6602C9.05621 23.1234 7.64785 27.1118 7.0822 31.4465C7.05334 31.6774 6.98985 31.9083 6.96099 32.1392C6.78206 33.5591 6.78206 33.5071 5.32176 33.5764C4.05193 33.6341 2.78211 33.813 1.51228 33.9458C1.40839 30.4076 1.31026 26.8752 1.20637 23.337C1.07361 18.9907 3.49206 15.4987 7.63054 14.0326C7.89605 13.9402 8.16733 13.7151 8.32317 13.4727C11.8037 8.07595 16.7791 5.40355 23.1628 5.38046C25.7833 5.36891 28.4442 5.28234 31.0242 5.64597C38.3604 6.67915 43.607 10.7195 46.9201 17.3168C47.0587 17.5939 47.1799 17.8825 47.3069 18.1653C48.1957 20.376 48.721 22.6674 48.8653 25.0455C48.8653 27.9834 48.8653 30.9271 48.8653 33.7149C47.3761 33.6514 46.0659 33.5937 44.7499 33.5418C44.5132 31.9141 44.3747 30.2691 44.0169 28.6702C43.659 27.0656 42.6489 25.9228 40.9866 25.4841L41.0097 25.4784Z" fill="#655E67"/>
<path d="M48.8895 25.0445C48.7452 22.6664 48.2199 20.375 47.3311 18.1643C47.3599 17.8584 47.4061 17.5467 47.4061 17.2408C47.4061 12.9234 47.4061 8.61174 47.4061 4.29432C47.4061 1.69695 49.1088 0.00577194 51.7062 0C57.1145 0 62.517 0 67.9253 0C68.3352 0 68.7392 0.0115439 69.149 0.0230878C69.2875 0.0865791 69.4203 0.161614 69.5588 0.213562C71.3597 0.917739 72.3063 2.42999 72.2889 4.3001C72.2254 11.3188 72.2889 18.3375 72.2254 25.3561C72.2197 26.1527 71.8618 27.0358 71.4174 27.7169C71.0076 28.3402 70.2572 28.7385 69.6742 29.2233H73.3683C73.0393 29.2753 72.7161 29.3619 72.3871 29.3619C69.7089 29.3619 67.0365 29.3619 64.3583 29.3272C63.4925 29.3157 62.8922 29.6447 62.3843 30.3316C61.2703 31.8323 60.1044 33.2926 58.9557 34.7702C58.8576 34.8914 58.7768 35.053 58.6441 35.1165C58.3612 35.2493 57.9976 35.4801 57.7667 35.3936C57.5358 35.307 57.2992 34.9029 57.2819 34.6201C57.2184 33.7139 57.2588 32.8019 57.2588 31.8958C57.2588 29.991 56.6008 29.3446 54.6787 29.3446C53.559 29.3446 52.4335 29.4311 51.331 29.2984C50.5345 29.2003 49.7726 28.802 48.9934 28.5365C48.9587 27.3705 48.9241 26.2104 48.8895 25.0445ZM60.0755 16.7502C60.0755 17.3735 60.0755 17.9969 60.0755 18.6261C60.0755 18.678 60.0755 18.73 60.0755 18.7819C60.1332 19.5323 60.6296 20.0229 61.3165 20.0056C61.9687 19.9882 62.4305 19.5149 62.4535 18.7761C62.4766 18.02 62.4824 17.2639 62.4535 16.5135C62.4362 16.0287 62.5921 15.8555 63.0942 15.7689C65.3337 15.388 67.1808 13.5063 67.5502 11.3072C67.9542 8.91188 66.8633 6.5627 64.7739 5.41985C62.9153 4.40399 61.0221 4.40976 59.2039 5.49489C57.4493 6.53961 56.5142 8.13267 56.468 10.1932C56.4507 10.9667 56.9356 11.4746 57.6224 11.4919C58.2747 11.5093 58.7422 11.059 58.8403 10.326C58.8749 10.0663 58.9038 9.8123 58.9615 9.55834C59.3136 8.06917 60.6469 7.05331 62.1649 7.12835C63.7003 7.20338 64.9528 8.30005 65.1952 9.78921C65.4376 11.2611 64.5718 12.7849 63.1462 13.2524C62.6209 13.4255 62.0264 13.414 61.4608 13.4544C60.5315 13.5179 60.0928 13.9508 60.0755 14.8801C60.064 15.5034 60.0755 16.1268 60.0755 16.7559V16.7502ZM62.4709 23.2436C62.4709 22.4067 62.038 21.893 61.3222 21.8757C60.5777 21.8583 60.0755 22.4067 60.0755 23.2436C60.0755 24.0575 60.6065 24.6462 61.3222 24.6289C62.0149 24.6116 62.4709 24.069 62.4709 23.2494V23.2436Z" fill="#F6E265"/>
<path d="M73.3677 29.2302H69.6737C70.2566 28.7453 71.007 28.3413 71.4168 27.7237C71.8613 27.0426 72.2191 26.1595 72.2249 25.363C72.2884 18.3443 72.2249 11.3256 72.2884 4.30692C72.3057 2.43681 71.3649 0.924564 69.5582 0.220387C69.4197 0.162667 69.2812 0.093404 69.1484 0.0299126C70.424 0.0241407 71.6996 -0.0220349 72.9752 0.0183687C75.1455 0.0818601 76.7501 1.98083 76.7559 4.46276C76.7616 11.2563 76.7559 18.0499 76.7559 24.8435C76.7559 25.2302 76.7039 25.6227 76.6346 26.0037C76.3518 27.6717 75.0531 28.9473 73.3677 29.2302Z" fill="#F2D232"/>
<path d="M41.0101 25.4784C42.6725 25.9229 43.6825 27.0599 44.0404 28.6645C44.3983 30.2634 44.5368 31.9141 44.7734 33.5361C44.7734 33.9516 44.7734 34.3672 44.7619 34.7828C44.7157 36.272 44.7215 37.7611 44.583 39.2387C44.5022 40.1276 44.1905 40.9934 43.9827 41.8765C42.8456 44.8087 41.1948 47.4176 38.7822 49.4493C37.3796 50.6268 35.7923 51.5907 34.2858 52.647C34.1358 52.6181 33.928 52.6412 33.8472 52.5488C33.0795 51.683 32.0694 51.7004 31.042 51.7061C28.6466 51.7234 26.2513 51.7177 23.8559 51.7061C23.5846 51.7061 23.3191 51.608 23.0479 51.5561C25.8242 51.4233 28.3754 50.5113 30.7996 49.2242C32.9583 48.0756 34.8803 46.6095 36.5946 44.8317C39.0419 42.2979 40.6811 39.3599 41.3969 35.9256C42.1299 32.4163 41.7836 28.9358 41.0101 25.4727V25.4784Z" fill="#DF9280"/>
<path d="M43.9823 41.8817C44.1901 41.0043 44.5018 40.1385 44.5826 39.2439C44.7211 37.7663 44.7154 36.2713 44.7615 34.788C44.7731 34.3724 44.7673 33.9568 44.7731 33.5412C46.0833 33.5989 47.3936 33.6509 48.8885 33.7144C48.8885 30.9265 48.8885 27.9828 48.8885 25.0449C48.9231 26.2109 48.9577 27.3768 48.9924 28.5369C48.9866 30.2224 48.9577 31.9135 48.9924 33.5989C48.9924 33.876 49.2117 34.2108 49.4195 34.4186C50.8394 35.8096 50.8856 37.5181 50.4758 39.267C50.1525 40.6465 49.1655 41.57 47.786 41.7778C46.5393 41.9683 45.2522 41.8528 43.9766 41.8759L43.9823 41.8817Z" fill="#F9A58D"/>
<path d="M27.8846 64.9766C26.3666 65.1439 24.8543 65.2478 23.3594 64.8265C24.9582 63.6086 25.7259 61.9925 25.697 59.9838C25.6912 59.4644 25.6912 58.9449 25.697 58.4254C25.7086 57.652 26.0087 57.3403 26.7821 57.3403C28.6003 57.3345 30.4242 57.3403 32.2424 57.3461C32.3982 58.2292 32.5599 59.1123 32.7157 59.9954C31.7056 59.9954 30.7013 59.9954 29.6912 59.9954C28.7504 59.9954 28.3925 60.3532 28.3463 61.2941C28.2944 62.4773 28.2367 63.6548 28.1847 64.838C28.0808 64.8842 27.9769 64.9304 27.873 64.9766H27.8846Z" fill="#DF9280"/>
<path d="M28.1963 64.8368C28.2482 63.6536 28.306 62.4761 28.3579 61.2928C28.3983 60.352 28.7562 59.9999 29.7028 59.9941C30.7129 59.9941 31.7172 59.9941 32.7273 59.9941C33.2583 60.4674 33.7893 60.9407 34.3145 61.414C33.9913 61.7719 33.6681 62.1298 33.3449 62.4876C32.0058 63.4688 30.5743 64.2769 28.9524 64.704C28.7042 64.7675 28.4503 64.7906 28.1963 64.8368Z" fill="#F9A58D"/>
<path d="M17.5825 50.7812C18.7427 51.041 19.9086 51.295 21.0687 51.5605C21.2073 51.5951 21.34 51.6586 21.4786 51.7105C20.5031 51.7105 19.5276 51.6932 18.5522 51.7221C17.8826 51.7394 17.5132 51.497 17.5825 50.7812Z" fill="#E09380"/>
<path d="M29.3278 40.0938C30.5284 40.5151 31.6597 40.8499 32.7448 41.3116C33.3855 41.5829 33.5702 42.339 33.2816 42.9047C32.9988 43.4646 32.3119 43.7185 31.6712 43.3607C30.0724 42.4718 28.5255 42.4891 26.9325 43.378C26.2976 43.7301 25.628 43.453 25.3452 42.8643C25.0681 42.2929 25.224 41.6175 25.8647 41.3463C26.9729 40.873 28.1273 40.5209 29.3278 40.0995V40.0938Z" fill="#444145"/>
<path d="M38.989 35.8162C38.9428 36.1452 38.9428 36.4915 38.8389 36.8032C38.6542 37.3515 38.2271 37.6574 37.6499 37.5824C37.0554 37.5074 36.6514 37.161 36.6167 36.5146C36.5937 36.0759 36.5937 35.6372 36.611 35.1986C36.6341 34.4713 37.0843 33.9692 37.7134 33.9461C38.3195 33.923 38.8563 34.4309 38.9371 35.1178C38.9602 35.3487 38.9371 35.5853 38.9371 35.8162C38.9544 35.8162 38.9717 35.8162 38.9832 35.8162H38.989Z" fill="#454145"/>
<path d="M19.0996 35.756C19.0996 35.6522 19.0996 35.5483 19.0996 35.4444C19.1112 34.4862 19.5498 33.9206 20.2655 33.9379C20.9755 33.9552 21.4257 34.5382 21.4372 35.479C21.4372 35.8657 21.4488 36.2582 21.3738 36.6334C21.2468 37.2741 20.8081 37.6435 20.1559 37.58C19.521 37.5223 19.1227 37.1355 19.1054 36.4545C19.0996 36.2236 19.1054 35.9869 19.1054 35.756C19.1054 35.756 19.1054 35.756 19.0996 35.756Z" fill="#454145"/>
<path d="M60.0747 16.7526C60.0747 16.1292 60.0632 15.5058 60.0747 14.8767C60.092 13.9474 60.5307 13.5145 61.46 13.451C62.0256 13.4106 62.6201 13.4279 63.1454 13.249C64.5711 12.7757 65.4368 11.2519 65.1944 9.78585C64.952 8.29669 63.6995 7.20002 62.1642 7.12499C60.6461 7.04995 59.3128 8.06004 58.9607 9.55497C58.903 9.80894 58.8741 10.0687 58.8395 10.3226C58.7414 11.0557 58.2796 11.5001 57.6216 11.4886C56.9348 11.4713 56.4499 10.9633 56.4672 10.1899C56.5134 8.1293 57.4427 6.53625 59.2031 5.49153C61.0213 4.41217 62.9145 4.40063 64.7731 5.41649C66.8625 6.55934 67.9534 8.90852 67.5494 11.3039C67.18 13.503 65.3272 15.3846 63.0934 15.7656C62.597 15.8522 62.4354 16.0253 62.4528 16.5102C62.4816 17.2605 62.4758 18.0166 62.4528 18.7728C62.4297 19.5116 61.9679 19.9849 61.3157 20.0022C60.623 20.0195 60.1267 19.5289 60.0747 18.7785C60.0747 18.7266 60.0747 18.6746 60.0747 18.6227C60.0747 17.9993 60.0747 17.376 60.0747 16.7468V16.7526Z" fill="#544F56"/>
<path d="M62.4647 23.2433C62.4647 24.0629 62.0145 24.6054 61.3161 24.6228C60.6004 24.6401 60.0693 24.0513 60.0693 23.2375C60.0693 22.4063 60.5715 21.8522 61.3161 21.8695C62.0318 21.8869 62.4647 22.4063 62.4647 23.2375V23.2433Z" fill="#544F56"/>
</svg>
