<svg width="36" height="36" viewBox="0 0 36 36" fill="none" xmlns="http://www.w3.org/2000/svg">
<path d="M35.6604 17.8183C35.6603 21.2952 34.6289 24.694 32.6972 27.5849C30.7655 30.4758 28.02 32.729 24.8077 34.0595C21.5954 35.39 18.0607 35.7381 14.6506 35.0597C11.2405 34.3814 8.10811 32.7071 5.64959 30.2485C3.19107 27.7899 1.51707 24.6575 0.838789 21.2474C0.160505 17.8373 0.508492 14.3027 1.83906 11.0904C3.16964 7.87817 5.42281 5.13261 8.31376 3.20095C11.2047 1.26929 14.6038 0.238281 18.0807 0.238281C22.7432 0.238379 27.2143 2.0906 30.5111 5.38748C33.8079 8.68437 35.6604 13.1558 35.6604 17.8183Z" fill="#B7D2FF"/>
<path d="M26.1111 26.0114L26.1477 25.8534C26.1529 25.8309 26.1264 25.8056 26.0881 25.7975C25.987 25.7808 25.8958 25.7277 25.8312 25.6483C25.4467 25.1168 25.1309 24.5387 24.8915 23.9279C24.5767 23.151 23.7418 21.2693 22.3864 18.2828C22.3015 18.0943 22.2195 17.8837 22.1405 17.6485C22.1365 17.6372 22.1301 17.6269 22.1218 17.6183C22.1135 17.6097 22.1035 17.603 22.0924 17.5986C22.0813 17.5942 22.0692 17.5923 22.0572 17.593C22.0453 17.5937 22.0337 17.5969 22.0231 17.6025C21.6228 17.811 21.2417 18.0543 20.884 18.3295L18.8877 19.604C15.9027 21.4617 12.9111 23.3158 9.91288 25.1661C9.9092 25.1683 9.8163 25.2367 9.63401 25.3723C9.53218 25.4476 9.41578 25.501 9.29233 25.5292C9.16887 25.5574 9.04097 25.5598 8.91655 25.5362C8.82444 25.3935 8.77527 25.2275 8.77443 25.0577C8.77358 24.8878 8.8212 24.7213 8.91189 24.5777C11.6786 19.7816 14.4408 14.9834 17.1987 10.1834C17.2838 10.0053 17.421 9.8572 17.5921 9.75876C17.7632 9.66032 17.9602 9.61615 18.157 9.63209C18.362 9.64707 18.5549 9.73387 18.7022 9.87722C18.8324 10.0186 18.9438 10.1763 19.0331 10.3465C21.6491 14.8822 24.2667 19.4173 26.8856 23.9518C27.1023 24.2823 27.257 24.6492 27.3429 25.0349C27.424 25.6898 27.013 26.0155 26.1097 26.0118L26.1111 26.0114Z" fill="#1A35D3"/>
<path d="M19.874 16.6503C19.874 16.9443 19.7868 17.2316 19.6235 17.476C19.4602 17.7204 19.2279 17.9109 18.9563 18.0234C18.6847 18.1359 18.3861 18.1654 18.0978 18.108C17.8095 18.0507 17.5444 17.9091 17.3365 17.7012C17.1287 17.4934 16.9872 17.2286 16.9299 16.9403C16.8725 16.652 16.9021 16.3531 17.0146 16.0815C17.1271 15.81 17.3175 15.5778 17.5619 15.4145C17.8063 15.2512 18.0938 15.1641 18.3878 15.1641C18.782 15.1641 19.1599 15.3206 19.4387 15.5994C19.7174 15.8781 19.874 16.2561 19.874 16.6503Z" fill="#B7D2FF"/>
<path d="M26.1112 26.0123C25.9226 25.9486 25.7571 25.8308 25.6353 25.6734C25.061 24.8022 23.4775 22.3545 20.8848 18.3303C21.2425 18.0551 21.6236 17.8119 22.0239 17.6034C22.0345 17.5978 22.0461 17.5946 22.058 17.5939C22.07 17.5932 22.0821 17.5951 22.0932 17.5995C22.1043 17.6038 22.1143 17.6105 22.1226 17.6191C22.1309 17.6277 22.1373 17.6381 22.1413 17.6493C22.2203 17.8845 22.3023 18.0951 22.3872 18.2837C23.7423 21.2706 24.5772 23.1523 24.8923 23.9288C25.1317 24.5396 25.4475 25.1176 25.8319 25.6492C25.8966 25.7286 25.9882 25.7817 26.0893 25.7984C26.126 25.8065 26.1536 25.8318 26.1485 25.8542L26.1119 26.0123H26.1112Z" fill="#13359E"/>
<path d="M18.8888 19.6035L22.0371 24.4893C22.0831 24.5606 22.0666 24.5812 21.9872 24.5529C21.5903 24.4125 21.1914 24.2755 20.7903 24.142C20.392 24.0044 19.9845 23.8945 19.5711 23.8131C18.084 23.5523 16.5542 23.6908 15.1382 24.2144C14.4933 24.4457 12.9007 24.997 10.3604 25.8683C10.1207 25.9678 9.86373 26.0185 9.6042 26.0175C9.45939 25.9986 9.32137 25.945 9.20186 25.861C9.08236 25.7771 8.98486 25.6655 8.91797 25.5357C9.04239 25.5593 9.17029 25.5569 9.29375 25.5287C9.4172 25.5005 9.5336 25.4471 9.63543 25.3718C9.81919 25.2362 9.91062 25.1678 9.9143 25.1656C12.9123 23.3155 15.9035 21.4615 18.8888 19.6035Z" fill="#13359E"/>
</svg>
