<svg width="87" height="87" viewBox="0 0 87 87" fill="none" xmlns="http://www.w3.org/2000/svg">
<g clip-path="url(#clip0_1561_2704)">
<path d="M47.8595 74.7375C47.6079 74.8538 47.3564 75.0678 47.101 75.0715C44.7054 75.0903 42.3136 75.0565 39.918 75.079C39.3848 75.0828 39.1295 74.8763 38.9568 74.4034C38.5062 73.1722 37.9918 71.9636 37.5675 70.7212C37.3497 70.0831 36.993 69.7903 36.3396 69.55C34.1881 68.7505 32.0929 67.8084 29.9714 66.9263C29.6898 66.8099 29.3894 66.7424 29.0965 66.6485C28.8524 66.1043 28.3831 65.7927 27.8574 66.0179C26.378 66.6523 24.9399 67.3805 23.4867 68.0711C21.8459 66.4496 20.1937 64.8393 18.5867 63.1878C18.3989 62.9963 18.3463 62.4934 18.4515 62.2268C18.9922 60.8718 19.6305 59.5581 20.1787 58.2068C20.2951 57.914 20.2839 57.4636 20.1374 57.1896C18.9471 55.005 17.9371 52.7529 17.31 50.3318C17.2274 50.0128 16.8331 49.6825 16.5027 49.5398C15.2148 48.988 13.9081 48.4888 12.5864 48.0196C12.0945 47.8432 11.9105 47.5992 11.9143 47.07C11.9406 44.7052 11.9406 42.3367 11.9143 39.972C11.9068 39.4427 12.0908 39.1988 12.5826 39.0224C13.9006 38.5532 15.2148 38.0577 16.4952 37.4984C16.8407 37.3483 17.1748 36.9729 17.325 36.6238C18.2675 34.4355 19.1236 32.2059 20.0886 30.0288C20.3139 29.5221 20.374 29.1505 20.1412 28.6588C19.5479 27.3901 18.9659 26.1139 18.444 24.8151C18.3351 24.5486 18.3914 24.0456 18.5792 23.8542C20.1862 22.1989 21.8384 20.5924 23.4792 18.9708C24.9324 19.6615 26.3705 20.3897 27.8499 21.024C28.3793 21.2492 28.8449 20.9377 29.089 20.3934C29.3293 20.3296 29.5959 20.3109 29.8062 20.1945C31.984 18.9896 34.2369 17.9912 36.655 17.3568C36.9742 17.2742 37.3121 16.8876 37.4511 16.5573C37.9955 15.2698 38.4724 13.9523 38.9492 12.6386C39.122 12.1656 39.3773 11.9592 39.9105 11.9629C42.3061 11.9817 44.6979 11.9517 47.0935 11.9704C47.3451 11.9704 47.6004 12.1882 47.852 12.3045C46.9734 12.2257 46.0947 12.1431 45.0546 12.0493C45.6329 13.5807 46.1661 14.8945 46.6204 16.2382C46.8607 16.9477 47.3075 17.2705 47.9834 17.5445C50.4053 18.5242 52.8159 19.5451 55.1852 20.6487C56.2666 21.1517 56.5445 21.2267 57.4982 20.4122C58.6735 19.9393 59.8525 19.4663 61.0278 18.9971C61.223 19.2749 61.3883 19.5864 61.6248 19.8229C63.1005 21.3168 64.5911 22.792 66.0668 24.2671C65.421 25.6935 64.7826 27.0335 64.2194 28.4073C64.0504 28.8202 63.8815 29.4283 64.058 29.7586C65.2482 31.9732 66.2696 34.2441 66.9267 36.6764C67.0055 36.9729 67.3359 37.2995 67.6288 37.4233C68.9393 37.9826 70.2722 38.4931 71.6165 38.9773C72.1046 39.1537 72.2773 39.4052 72.2698 39.9307C72.2398 42.3255 72.2398 44.7203 72.2698 47.115C72.2773 47.6405 72.1009 47.892 71.6165 48.0647C70.3023 48.5376 68.9918 49.0293 67.7114 49.5849C67.3735 49.7313 67.0393 50.1029 66.8929 50.4482C65.9842 52.584 65.1919 54.7685 64.2119 56.8705C63.8927 57.5537 63.9265 58.0416 64.2006 58.6422C64.8277 60.0123 65.4435 61.3898 66.0781 62.7974C64.5498 64.3138 63.0517 65.789 61.5685 67.2791C61.3507 67.4968 61.2118 67.7859 61.0353 68.0449C59.86 67.5719 58.681 67.099 57.5057 66.626C56.5558 65.8115 56.2629 65.849 55.1965 66.3933C53.5143 67.2566 51.8472 68.2626 50.0486 68.758C47.7882 69.3811 46.32 70.4922 45.8356 72.8307C45.693 73.5138 45.3888 74.1632 45.0997 75.0002C46.1435 74.8989 47.0034 74.8163 47.8595 74.7337V74.7375ZM45.2649 61.9416C45.6141 61.9266 45.9708 61.9528 46.3125 61.8928C50.762 61.1458 54.5356 59.1339 57.487 55.7182C61.2719 51.3378 62.7287 46.2179 61.8426 40.5125C61.1442 36.0233 58.9701 32.2735 55.5006 29.3382C52.6056 26.8871 49.2788 25.3631 45.4414 25.0966C43.6278 25.1567 41.7729 24.9953 40.0044 25.3068C28.0339 27.4201 21.3577 40.7152 26.7873 51.6381C29.6597 57.4185 34.3946 60.8305 40.7553 61.8778C42.2197 62.118 43.7555 61.9341 45.2612 61.9416H45.2649Z" fill="#FEE076"/>
<path d="M17.8887 78.8701C18.1515 79.8385 18.4106 80.7581 18.6471 81.6853C18.8612 82.511 18.512 83.2618 17.8361 83.4832C17.0063 83.7535 16.2553 83.3894 15.9812 82.4773C15.2565 80.045 14.5619 77.6051 13.8972 75.1578C13.6156 74.1181 14.2164 73.3749 15.3016 73.3261C17.6934 73.2172 20.0815 73.1121 22.4733 73.0145C22.7587 73.0033 23.0666 73.0145 23.3332 73.1009C24.0166 73.3223 24.4296 73.7953 24.3508 74.5422C24.2682 75.3117 23.7988 75.7471 23.0178 75.7959C21.7674 75.8748 20.5133 75.9348 18.9963 76.0174C19.7436 76.5504 20.3256 76.9896 20.9301 77.3912C26.0367 80.8032 31.6502 82.939 37.718 83.7985C45.3479 84.8795 52.7225 83.8623 59.8041 80.7919C64.385 78.8025 68.4703 76.0512 72.0036 72.5491C78.0377 66.5697 81.8939 59.3891 83.4822 51.0224C84.068 47.9408 84.3196 44.8328 84.1581 41.7023C83.8352 35.4339 82.2281 29.5145 79.1829 24.0043C79.0402 23.7491 78.8975 23.4938 78.7699 23.2311C78.3381 22.349 78.5183 21.5345 79.2205 21.1704C79.9639 20.7838 80.7149 21.0202 81.203 21.8723C83.0054 25.029 84.4285 28.3472 85.401 31.8568C86.58 36.102 87.1357 40.4299 86.9705 44.8328C86.6401 53.6349 83.9816 61.6638 78.8262 68.8368C73.3141 76.5053 66.0297 81.7904 57.1081 84.8232C53.7287 85.9718 50.2405 86.6062 46.6696 86.8764C38.7619 87.4733 31.2747 85.9456 24.1818 82.4848C22.0378 81.4375 20.0327 80.1125 17.8887 78.8701Z" fill="#9EABB9"/>
<path d="M69.1574 8.41467C68.8645 7.36742 68.6054 6.4478 68.3463 5.52818C68.0872 4.6048 68.4139 3.79403 69.1348 3.56131C70.0247 3.27604 70.7231 3.68518 71.0348 4.73993C71.7219 7.08966 72.4016 9.44314 73.0511 11.8041C73.3665 12.9452 72.777 13.6697 71.5792 13.7222C69.2475 13.8235 66.9157 13.9324 64.5839 14.0262C64.2685 14.0375 63.9306 14.03 63.634 13.9362C62.9468 13.7222 62.5413 13.2417 62.6202 12.4948C62.7028 11.7216 63.1759 11.2936 63.9569 11.2448C65.2073 11.166 66.4614 11.106 67.8019 11.0346C67.6779 10.8808 67.5991 10.7381 67.4789 10.648C62.1846 6.81565 56.3195 4.36833 49.8536 3.34736C42.3777 2.16499 35.1384 3.01705 28.1356 5.83597C23.5959 7.66395 19.5369 10.2764 15.936 13.6021C10.4615 18.6506 6.65404 24.7314 4.49875 31.8556C3.14325 36.3374 2.56875 40.9318 2.82408 45.5974C3.16577 51.8321 4.8104 57.7177 7.86685 63.1866C8.07713 63.5657 8.30993 63.9598 8.39629 64.3765C8.53897 65.0671 8.32495 65.6752 7.5965 65.9342C6.87933 66.1895 6.22974 66.0168 5.87303 65.3186C4.94182 63.5019 3.9618 61.7002 3.17704 59.8159C1.41977 55.5857 0.43975 51.1715 0.113077 46.5884C-0.408848 39.2126 0.879068 32.186 3.91299 25.4633C6.37242 20.0094 9.85317 15.2762 14.2952 11.2861C20.4268 5.77216 27.5723 2.24006 35.6941 0.731129C39.0096 0.115545 42.359 -0.139697 45.7196 0.0705023C54.2694 0.603508 62.0795 3.2798 69.1611 8.41091L69.1574 8.41467Z" fill="#9EABB9"/>
<path d="M61.0357 68.049C61.2122 67.7938 61.3548 67.501 61.5689 67.2833C63.052 65.7931 64.5502 64.318 66.0784 62.8016C65.4439 61.394 64.8318 60.0164 64.201 58.6464C63.9269 58.0458 63.8931 57.5578 64.2123 56.8747C65.1923 54.7727 65.9808 52.5844 66.8932 50.4523C67.0397 50.1033 67.3739 49.7354 67.7118 49.589C68.9922 49.0297 70.3027 48.5418 71.6169 48.0688C72.1012 47.8924 72.2777 47.6447 72.2702 47.1192C72.2402 44.7244 72.2402 42.3296 72.2702 39.9349C72.2777 39.4094 72.105 39.1579 71.6169 38.9815C70.2764 38.4973 68.9434 37.9868 67.6292 37.4275C67.3363 37.3036 67.0059 36.9771 66.927 36.6805C66.2699 34.2482 65.2486 31.9773 64.0583 29.7627C63.8819 29.4324 64.0508 28.8243 64.2198 28.4114C64.7868 27.0414 65.4251 25.6976 66.0672 24.2713C64.5915 22.7961 63.1008 21.321 61.6252 19.8271C61.3886 19.5868 61.2272 19.279 61.0282 19.0013C62.1446 18.4207 63.1371 18.5646 64.0058 19.4329C65.4326 20.8593 66.8444 22.2931 68.2901 23.7007C68.6768 24.0761 68.7895 24.3876 68.5379 24.9094C67.9296 26.1668 67.3551 27.4468 66.8482 28.7493C66.713 29.0946 66.7543 29.5938 66.897 29.9504C67.7756 32.165 68.6918 34.3646 69.6381 36.5492C69.7882 36.902 70.0999 37.2886 70.4341 37.435C71.7145 37.998 73.0287 38.4823 74.3429 38.9627C74.846 39.1466 75.0713 39.4019 75.0638 39.9762C75.03 42.3409 75.03 44.7094 75.0638 47.0741C75.0713 47.6484 74.846 47.9037 74.3429 48.0876C73.0287 48.5681 71.7145 49.0523 70.4341 49.6153C70.0999 49.7617 69.7882 50.1521 69.6381 50.5011C68.6918 52.6857 67.7756 54.8853 66.897 57.0999C66.7543 57.4565 66.713 57.9557 66.8482 58.301C67.3551 59.6035 67.9258 60.8835 68.5379 62.1409C68.7932 62.6664 68.6768 62.9705 68.2901 63.3496C66.7018 64.8998 65.1022 66.4425 63.589 68.0678C62.9807 68.7247 62.455 68.8598 61.7266 68.4019C61.505 68.263 61.261 68.1654 61.0244 68.0453L61.0357 68.049Z" fill="#FECF64"/>
<path d="M57.5061 20.4157C56.5561 21.2302 56.2745 21.1551 55.1931 20.6521C52.8238 19.5486 50.4132 18.5276 47.9913 17.5479C47.3117 17.2739 46.8686 16.9511 46.6283 16.2417C46.1739 14.8979 45.6407 13.5804 45.0625 12.0527C46.1026 12.1466 46.9812 12.2254 47.8599 12.308C48.4043 13.6893 48.9676 15.0593 49.4782 16.4519C49.6772 16.9962 49.9776 17.2664 50.5596 17.4241C53.0153 18.0847 55.3621 19.0231 57.5061 20.4157Z" fill="#FECF64"/>
<path d="M47.8594 74.7377C46.9996 74.8203 46.1435 74.9029 45.0996 75.0042C45.3887 74.1672 45.6929 73.5178 45.8356 72.8347C46.3199 70.5 47.7881 69.3852 50.0485 68.7621C51.8471 68.2666 53.5142 67.2607 55.1964 66.3973C56.2628 65.8493 56.5557 65.8155 57.5056 66.6301C55.3579 68.0189 53.0111 68.9573 50.5592 69.6216C49.9772 69.7793 49.6805 70.0495 49.4778 70.5938C48.9671 71.9864 48.4039 73.3564 47.8594 74.7377Z" fill="#FECF64"/>
<path d="M29.0961 20.3944C28.852 20.9387 28.3827 21.2502 27.857 21.025C26.3776 20.3906 24.9395 19.6624 23.4863 18.9718C23.8656 18.2849 24.3274 18.191 25.0559 18.5627C26.3701 19.2345 27.7481 19.7901 29.0961 20.3944Z" fill="#FED064"/>
<path d="M23.4863 68.0705C24.9395 67.3799 26.3776 66.6517 27.857 66.0173C28.3864 65.7921 28.852 66.1037 29.0961 66.6479C27.6129 67.3123 26.1222 67.9579 24.6503 68.6486C23.9707 68.9676 23.8055 68.4008 23.4863 68.0705Z" fill="#FED064"/>
<path d="M45.4455 25.0957C49.283 25.3622 52.6098 26.8862 55.5048 29.3372C58.9705 32.2763 61.1483 36.0223 61.8468 40.5116C62.7329 46.217 61.276 51.3331 57.4911 55.7172C54.5398 59.1367 50.7624 61.1449 46.3167 61.8918C45.975 61.9481 45.6183 61.9256 45.2691 61.9406C44.6758 61.9406 44.0825 61.9331 43.4893 61.9331C43.4893 49.659 43.4893 37.3811 43.4893 25.107C44.1426 25.107 44.7959 25.0995 45.4493 25.0957H45.4455ZM51.5284 44.6818C50.6798 43.8185 49.9739 43.0828 49.2492 42.3658C48.4457 41.5701 47.5933 41.4875 46.9287 42.1106C46.3129 42.6849 46.403 43.5144 47.1953 44.3252C48.1565 45.3049 49.1291 46.2733 50.1053 47.2379C51.0703 48.1951 51.8626 48.2026 52.8238 47.2455C54.6449 45.4325 56.4623 43.6158 58.2759 41.7953C59.0156 41.0558 59.1508 40.0199 58.6026 39.4643C58.0506 38.9088 57.0105 39.0477 56.2708 39.7796C55.3771 40.6617 54.4835 41.5438 53.6086 42.4447C52.9215 43.1541 52.2644 43.8898 51.5322 44.6818H51.5284Z" fill="#C3E1FE"/>
<path d="M43.4859 61.9331C44.0792 61.9331 44.6725 61.9406 45.2657 61.9406C43.7638 61.9294 42.2281 62.1171 40.7599 61.8768C34.3992 60.8296 29.6643 57.4176 26.7918 51.6371C21.3661 40.7143 28.0385 27.4192 40.0089 25.3059C41.7775 24.9944 43.6324 25.1558 45.446 25.0957C44.7926 25.0957 44.1393 25.1032 43.4859 25.107C43.2043 25.167 42.9189 25.2308 42.6373 25.2834C39.3443 25.9365 36.3893 27.3028 33.881 29.5474C31.5004 31.6757 29.7019 34.2056 28.6205 37.2497C27.5278 40.3314 27.2387 43.4656 27.7944 46.6749C28.3463 49.8617 29.638 52.7182 31.7069 55.2143C33.6144 57.5152 35.8748 59.377 38.6534 60.4918C40.2079 61.1149 41.8713 61.4564 43.4859 61.9256V61.9331Z" fill="#C3E1FE"/>
<path d="M43.4849 61.9339C41.8703 61.4647 40.2069 61.1194 38.6524 60.5C35.8738 59.389 33.6134 57.5272 31.7059 55.2225C29.637 52.7227 28.3453 49.8662 27.7934 46.6832C27.2377 43.4739 27.5305 40.3397 28.6194 37.258C29.6971 34.2139 31.4994 31.684 33.88 29.5557C36.3882 27.3111 39.3433 25.9448 42.6363 25.2916C42.9217 25.2353 43.2033 25.1715 43.4849 25.1152C43.4849 37.3894 43.4849 49.6673 43.4849 61.9414V61.9339ZM32.4156 43.5415C31.4994 44.371 30.7146 45.0204 30.005 45.7448C29.2803 46.488 29.4042 47.5352 30.2077 47.9932C30.8874 48.3798 31.4957 48.2109 32.0326 47.6779C32.746 46.9647 33.4632 46.2553 34.2517 45.4708C34.9839 46.2403 35.6147 46.9309 36.2793 47.5878C37.0491 48.3498 37.8038 48.4061 38.4384 47.798C39.0992 47.1674 39.0542 46.3716 38.2431 45.5871C37.556 44.9228 36.8125 44.3184 35.9752 43.5865C36.8839 42.7382 37.5823 42.1151 38.2431 41.4582C39.0429 40.6625 39.0992 39.8817 38.4421 39.2436C37.8076 38.6318 37.0528 38.6768 36.2869 39.4463C35.611 40.1257 34.9914 40.8539 34.2104 41.706C33.4257 40.8539 32.8099 40.1557 32.1565 39.4951C31.3567 38.6844 30.5795 38.6168 29.9374 39.2549C29.3141 39.8742 29.3817 40.7 30.1739 41.4808C30.8348 42.1339 31.5407 42.7382 32.4118 43.5377L32.4156 43.5415Z" fill="#D7EBFD"/>
<path d="M51.5281 44.6806C52.2603 43.8924 52.9174 43.1529 53.6046 42.4435C54.4795 41.5426 55.3731 40.6605 56.2668 39.7785C57.0065 39.0465 58.0466 38.9076 58.5985 39.4632C59.1505 40.0187 59.0116 41.0547 58.2719 41.7941C56.4583 43.6146 54.6409 45.4313 52.8198 47.2443C51.8586 48.2014 51.07 48.1939 50.1013 47.2368C49.125 46.2721 48.1525 45.3037 47.1913 44.324C46.399 43.5132 46.3089 42.6837 46.9247 42.1094C47.593 41.4863 48.4454 41.5689 49.2452 42.3647C49.9699 43.0816 50.6758 43.8173 51.5244 44.6806H51.5281Z" fill="#8AC8FD"/>
<path d="M32.4156 43.5406C31.5445 42.7411 30.8386 42.1368 30.1777 41.4837C29.3854 40.7029 29.3179 39.8772 29.9412 39.2578C30.5832 38.6197 31.3605 38.691 32.1603 39.498C32.8136 40.1587 33.4257 40.8568 34.2142 41.7089C34.9952 40.8568 35.6185 40.1249 36.2906 39.4493C37.0566 38.6798 37.8113 38.631 38.4459 39.2466C39.103 39.8847 39.0504 40.6654 38.2469 41.4612C37.586 42.118 36.8876 42.7374 35.979 43.5894C36.8163 44.3251 37.5598 44.9294 38.2469 45.5901C39.0579 46.3746 39.103 47.1703 38.4422 47.8009C37.8076 48.409 37.0529 48.3527 36.2831 47.5907C35.6185 46.9338 34.9877 46.2432 34.2555 45.4737C33.467 46.2582 32.7498 46.9676 32.0364 47.6808C31.4994 48.2138 30.8949 48.3827 30.2115 47.9961C29.408 47.5382 29.2841 46.4909 30.0087 45.7477C30.7147 45.0195 31.5032 44.3739 32.4194 43.5444L32.4156 43.5406Z" fill="#FD646F"/>
</g>
<defs>
<clipPath id="clip0_1561_2704">
<rect width="87" height="87" fill="white"/>
</clipPath>
</defs>
</svg>
